Courier Prime Code Italic.ufo
<glyph name="exclam" format="1">
  <advance width="1228"/>
  <unicode hex="0021"/>
  <outline>
    <contour>
      <point x="697" y="1269" type="line" smooth="yes"/>
      <point x="667" y="1269"/>
      <point x="650" y="1254"/>
      <point x="647" y="1219" type="curve" smooth="yes"/>
      <point x="570" y="512" type="line" smooth="yes"/>
      <point x="567" y="481"/>
      <point x="586" y="464"/>
      <point x="620" y="464" type="curve" smooth="yes"/>
      <point x="655" y="464"/>
      <point x="678" y="481"/>
      <point x="685" y="512" type="curve" smooth="yes"/>
      <point x="859" y="1219" type="line" smooth="yes"/>
      <point x="868" y="1254"/>
      <point x="857" y="1269"/>
      <point x="827" y="1269" type="curve" smooth="yes"/>
    </contour>
    <contour>
      <point x="502" y="270"/>
      <point x="469" y="252"/>
      <point x="461" y="207" type="curve" smooth="yes"/>
      <point x="434" y="53" type="line" smooth="yes"/>
      <point x="426" y="8"/>
      <point x="468" y="-10"/>
      <point x="556" y="-10" type="curve" smooth="yes"/>
      <point x="644" y="-10"/>
      <point x="676" y="8"/>
      <point x="684" y="53" type="curve" smooth="yes"/>
      <point x="711" y="207" type="line" smooth="yes"/>
      <point x="719" y="252"/>
      <point x="678" y="270"/>
      <point x="590" y="270" type="curve" smooth="yes"/>
    </contour>
  </outline>
</glyph>
<glyph name="numbersign" format="1">
  <advance width="1228"/>
  <unicode hex="0023"/>
  <outline>
    <contour>
      <point x="1055" y="1209"/>
      <point x="1035" y="1199"/>
      <point x="1025" y="1176" type="curve" smooth="yes"/>
      <point x="540" y="45" type="line" smooth="yes"/>
      <point x="522" y="3"/>
      <point x="563" y="-22"/>
      <point x="606" y="-22" type="curve" smooth="yes"/>
      <point x="636" y="-22"/>
      <point x="656" y="-12"/>
      <point x="666" y="11" type="curve" smooth="yes"/>
      <point x="1151" y="1142" type="line" smooth="yes"/>
      <point x="1169" y="1184"/>
      <point x="1128" y="1209"/>
      <point x="1085" y="1209" type="curve" smooth="yes"/>
    </contour>
    <contour>
      <point x="137" y="476" type="line" smooth="yes"/>
      <point x="92" y="476"/>
      <point x="70" y="456"/>
      <point x="61" y="404" type="curve" smooth="yes"/>
      <point x="52" y="352"/>
      <point x="67" y="332"/>
      <point x="112" y="332" type="curve" smooth="yes"/>
      <point x="1024" y="332" type="line" smooth="yes"/>
      <point x="1069" y="332"/>
      <point x="1090" y="352"/>
      <point x="1099" y="404" type="curve" smooth="yes"/>
      <point x="1108" y="456"/>
      <point x="1094" y="476"/>
      <point x="1049" y="476" type="curve" smooth="yes"/>
    </contour>
    <contour>
      <point x="661" y="1209"/>
      <point x="641" y="1199"/>
      <point x="631" y="1176" type="curve" smooth="yes"/>
      <point x="146" y="45" type="line" smooth="yes"/>
      <point x="128" y="3"/>
      <point x="169" y="-22"/>
      <point x="212" y="-22" type="curve" smooth="yes"/>
      <point x="242" y="-22"/>
      <point x="262" y="-12"/>
      <point x="272" y="11" type="curve" smooth="yes"/>
      <point x="757" y="1142" type="line" smooth="yes"/>
      <point x="775" y="1184"/>
      <point x="734" y="1209"/>
      <point x="691" y="1209" type="curve" smooth="yes"/>
    </contour>
    <contour>
      <point x="276" y="865" type="line" smooth="yes"/>
      <point x="231" y="865"/>
      <point x="209" y="845"/>
      <point x="200" y="793" type="curve" smooth="yes"/>
      <point x="191" y="741"/>
      <point x="205" y="721"/>
      <point x="250" y="721" type="curve" smooth="yes"/>
      <point x="1162" y="721" type="line" smooth="yes"/>
      <point x="1207" y="721"/>
      <point x="1229" y="741"/>
      <point x="1238" y="793" type="curve" smooth="yes"/>
      <point x="1247" y="845"/>
      <point x="1233" y="865"/>
      <point x="1188" y="865" type="curve" smooth="yes"/>
    </contour>
  </outline>
</glyph>
<glyph name="ampersand" format="1">
  <advance width="1228"/>
  <unicode hex="0026"/>
  <outline>
    <contour>
      <point x="488" y="1269"/>
      <point x="346" y="1080"/>
      <point x="346" y="883" type="curve" smooth="yes"/>
      <point x="346" y="781"/>
      <point x="380" y="694"/>
      <point x="440" y="612" type="curve" smooth="yes"/>
      <point x="882" y="11" type="line" smooth="yes"/>
      <point x="902" y="-16"/>
      <point x="928" y="-24"/>
      <point x="980" y="5" type="curve" smooth="yes"/>
      <point x="1029" y="32"/>
      <point x="1038" y="58"/>
      <point x="1013" y="92" type="curve" smooth="yes"/>
      <point x="574" y="687" type="line" smooth="yes"/>
      <point x="528" y="749"/>
      <point x="502" y="812"/>
      <point x="502" y="880" type="curve" smooth="yes"/>
      <point x="502" y="1022"/>
      <point x="600" y="1121"/>
      <point x="734" y="1121" type="curve" smooth="yes"/>
      <point x="820" y="1121"/>
      <point x="902" y="1092"/>
      <point x="967" y="1052" type="curve" smooth="yes"/>
      <point x="995" y="1035"/>
      <point x="1021" y="1037"/>
      <point x="1052" y="1084" type="curve" smooth="yes"/>
      <point x="1083" y="1131"/>
      <point x="1080" y="1160"/>
      <point x="1049" y="1180" type="curve" smooth="yes"/>
      <point x="971" y="1230"/>
      <point x="860" y="1269"/>
      <point x="741" y="1269" type="curve" smooth="yes"/>
    </contour>
    <contour>
      <point x="293" y="608"/>
      <point x="140" y="475"/>
      <point x="140" y="271" type="curve" smooth="yes"/>
      <point x="140" y="109"/>
      <point x="246" y="-22"/>
      <point x="442" y="-22" type="curve" smooth="yes"/>
      <point x="727" y="-22"/>
      <point x="931" y="238"/>
      <point x="1081" y="591" type="curve" smooth="yes"/>
      <point x="1101" y="637"/>
      <point x="1092" y="660"/>
      <point x="1035" y="674" type="curve" smooth="yes"/>
      <point x="982" y="687"/>
      <point x="956" y="676"/>
      <point x="937" y="630" type="curve" smooth="yes"/>
      <point x="832" y="371"/>
      <point x="666" y="126"/>
      <point x="454" y="126" type="curve" smooth="yes"/>
      <point x="355" y="126"/>
      <point x="296" y="184"/>
      <point x="296" y="282" type="curve" smooth="yes"/>
      <point x="296" y="440"/>
      <point x="436" y="532"/>
      <point x="563" y="593" type="curve"/>
      <point x="485" y="705" type="line"/>
    </contour>
  </outline>
</glyph>
<glyph name="parenleft" format="1">
  <advance width="1228"/>
  <unicode hex="0028"/>
  <outline>
    <contour>
      <point x="567" y="1193"/>
      <point x="304" y="788"/>
      <point x="304" y="362" type="curve" smooth="yes"/>
      <point x="304" y="27"/>
      <point x="471" y="-221"/>
      <point x="641" y="-337" type="curve" smooth="yes"/>
      <point x="666" y="-354"/>
      <point x="696" y="-339"/>
      <point x="718" y="-315" type="curve" smooth="yes"/>
      <point x="743" y="-288"/>
      <point x="756" y="-249"/>
      <point x="737" y="-235" type="curve" smooth="yes"/>
      <point x="588" y="-124"/>
      <point x="451" y="76"/>
      <point x="451" y="362" type="curve" smooth="yes"/>
      <point x="451" y="743"/>
      <point x="662" y="1067"/>
      <point x="1001" y="1243" type="curve" smooth="yes"/>
      <point x="1026" y="1256"/>
      <point x="1026" y="1299"/>
      <point x="1011" y="1334" type="curve" smooth="yes"/>
      <point x="998" y="1366"/>
      <point x="972" y="1390"/>
      <point x="940" y="1375" type="curve" smooth="yes"/>
    </contour>
  </outline>
</glyph>
<glyph name="parenright" format="1">
  <advance width="1228"/>
  <unicode hex="0029"/>
  <outline>
    <contour>
      <point x="604" y="1391"/>
      <point x="574" y="1376"/>
      <point x="552" y="1352" type="curve" smooth="yes"/>
      <point x="527" y="1325"/>
      <point x="514" y="1286"/>
      <point x="533" y="1272" type="curve" smooth="yes"/>
      <point x="682" y="1161"/>
      <point x="819" y="961"/>
      <point x="819" y="675" type="curve"/>
      <point x="819" y="294"/>
      <point x="608" y="-30"/>
      <point x="269" y="-206" type="curve" smooth="yes"/>
      <point x="244" y="-219"/>
      <point x="244" y="-262"/>
      <point x="259" y="-297" type="curve" smooth="yes"/>
      <point x="272" y="-329"/>
      <point x="298" y="-353"/>
      <point x="330" y="-338" type="curve" smooth="yes"/>
      <point x="703" y="-156"/>
      <point x="966" y="249"/>
      <point x="966" y="675" type="curve" smooth="yes"/>
      <point x="966" y="1010"/>
      <point x="799" y="1258"/>
      <point x="629" y="1374" type="curve" smooth="yes"/>
    </contour>
  </outline>
</glyph>
<glyph name="comma" format="1">
  <advance width="1228"/>
  <unicode hex="002C"/>
  <outline>
    <contour>
      <point x="502" y="294" type="line" smooth="yes"/>
      <point x="474" y="294"/>
      <point x="452" y="280"/>
      <point x="443" y="254" type="curve" smooth="yes"/>
      <point x="270" y="-228" type="line" smooth="yes"/>
      <point x="255" y="-270"/>
      <point x="272" y="-294"/>
      <point x="328" y="-294" type="curve" smooth="yes"/>
      <point x="376" y="-294"/>
      <point x="408" y="-281"/>
      <point x="425" y="-253" type="curve" smooth="yes"/>
      <point x="717" y="231" type="line" smooth="yes"/>
      <point x="738" y="266"/>
      <point x="727" y="294"/>
      <point x="694" y="294" type="curve" smooth="yes"/>
    </contour>
  </outline>
</glyph>
<glyph name="hyphen" format="1">
  <advance width="1228"/>
  <unicode hex="002D"/>
  <outline>
    <contour>
      <point x="278" y="654" type="line" smooth="yes"/>
      <point x="233" y="654"/>
      <point x="211" y="634"/>
      <point x="202" y="582" type="curve" smooth="yes"/>
      <point x="193" y="530"/>
      <point x="207" y="510"/>
      <point x="252" y="510" type="curve" smooth="yes"/>
      <point x="1014" y="510" type="line" smooth="yes"/>
      <point x="1059" y="510"/>
      <point x="1081" y="530"/>
      <point x="1090" y="582" type="curve" smooth="yes"/>
      <point x="1099" y="634"/>
      <point x="1085" y="654"/>
      <point x="1040" y="654" type="curve" smooth="yes"/>
    </contour>
  </outline>
</glyph>
<glyph name="period" format="1">
  <advance width="1228"/>
  <unicode hex="002E"/>
  <outline>
    <contour>
      <point x="494" y="300"/>
      <point x="459" y="282"/>
      <point x="451" y="237" type="curve" smooth="yes"/>
      <point x="418" y="53" type="line" smooth="yes"/>
      <point x="410" y="8"/>
      <point x="455" y="-10"/>
      <point x="550" y="-10" type="curve" smooth="yes"/>
      <point x="645" y="-10"/>
      <point x="680" y="8"/>
      <point x="688" y="53" type="curve" smooth="yes"/>
      <point x="721" y="237" type="line" smooth="yes"/>
      <point x="729" y="282"/>
      <point x="684" y="300"/>
      <point x="589" y="300" type="curve" smooth="yes"/>
    </contour>
  </outline>
</glyph>
<glyph name="slash" format="1">
  <advance width="1228"/>
  <unicode hex="002F"/>
  <outline>
    <contour>
      <point x="1078" y="1394"/>
      <point x="1055" y="1385"/>
      <point x="1042" y="1362" type="curve" smooth="yes"/>
      <point x="89" y="-276" type="line" smooth="yes"/>
      <point x="66" y="-315"/>
      <point x="98" y="-355"/>
      <point x="161" y="-355" type="curve" smooth="yes"/>
      <point x="193" y="-355"/>
      <point x="216" y="-346"/>
      <point x="229" y="-323" type="curve" smooth="yes"/>
      <point x="1182" y="1315" type="line" smooth="yes"/>
      <point x="1205" y="1354"/>
      <point x="1173" y="1394"/>
      <point x="1110" y="1394" type="curve" smooth="yes"/>
    </contour>
  </outline>
</glyph>
<glyph name="one" format="1">
  <advance width="1228"/>
  <unicode hex="0031"/>
  <outline>
    <contour>
      <point x="340" y="961" type="line" smooth="yes"/>
      <point x="307" y="943"/>
      <point x="296" y="915"/>
      <point x="320" y="869" type="curve" smooth="yes"/>
      <point x="344" y="823"/>
      <point x="374" y="816"/>
      <point x="404" y="833" type="curve" smooth="yes"/>
      <point x="719" y="1010" type="line"/>
      <point x="682" y="1038" type="line"/>
      <point x="518" y="108" type="line"/>
      <point x="668" y="108" type="line"/>
      <point x="853" y="1157" type="line" smooth="yes"/>
      <point x="863" y="1211"/>
      <point x="814" y="1224"/>
      <point x="770" y="1200" type="curve" smooth="yes"/>
    </contour>
    <contour>
      <point x="275" y="144" type="line" smooth="yes"/>
      <point x="230" y="144"/>
      <point x="208" y="124"/>
      <point x="199" y="72" type="curve" smooth="yes"/>
      <point x="190" y="20"/>
      <point x="205" y="0"/>
      <point x="250" y="0" type="curve" smooth="yes"/>
      <point x="924" y="0" type="line" smooth="yes"/>
      <point x="969" y="0"/>
      <point x="990" y="20"/>
      <point x="999" y="72" type="curve" smooth="yes"/>
      <point x="1008" y="124"/>
      <point x="994" y="144"/>
      <point x="949" y="144" type="curve" smooth="yes"/>
    </contour>
  </outline>
</glyph>
<glyph name="three" format="1">
  <advance width="1228"/>
  <unicode hex="0033"/>
  <outline>
    <contour>
      <point x="599" y="1209"/>
      <point x="477" y="1181"/>
      <point x="368" y="1123" type="curve" smooth="yes"/>
      <point x="331" y="1103"/>
      <point x="316" y="1072"/>
      <point x="337" y="1024" type="curve" smooth="yes"/>
      <point x="357" y="978"/>
      <point x="386" y="971"/>
      <point x="419" y="988" type="curve" smooth="yes"/>
      <point x="520" y="1041"/>
      <point x="611" y="1061"/>
      <point x="698" y="1061" type="curve" smooth="yes"/>
      <point x="826" y="1061"/>
      <point x="894" y="1007"/>
      <point x="894" y="917" type="curve" smooth="yes"/>
      <point x="894" y="810"/>
      <point x="830" y="691"/>
      <point x="626" y="691" type="curve" smooth="yes"/>
      <point x="571" y="691" type="line" smooth="yes"/>
      <point x="526" y="691"/>
      <point x="505" y="673"/>
      <point x="496" y="623" type="curve" smooth="yes"/>
      <point x="488" y="573"/>
      <point x="502" y="555"/>
      <point x="547" y="555" type="curve" smooth="yes"/>
      <point x="620" y="555" type="line" smooth="yes"/>
      <point x="756" y="555"/>
      <point x="838" y="498"/>
      <point x="838" y="385" type="curve" smooth="yes"/>
      <point x="838" y="269"/>
      <point x="759" y="126"/>
      <point x="540" y="126" type="curve" smooth="yes"/>
      <point x="434" y="126"/>
      <point x="333" y="166"/>
      <point x="258" y="229" type="curve" smooth="yes"/>
      <point x="223" y="260"/>
      <point x="188" y="233"/>
      <point x="165" y="197" type="curve" smooth="yes"/>
      <point x="141" y="160"/>
      <point x="139" y="129"/>
      <point x="169" y="104" type="curve" smooth="yes"/>
      <point x="259" y="28"/>
      <point x="391" y="-22"/>
      <point x="524" y="-22" type="curve" smooth="yes"/>
      <point x="873" y="-22"/>
      <point x="991" y="213"/>
      <point x="991" y="383" type="curve" smooth="yes"/>
      <point x="991" y="500"/>
      <point x="939" y="583"/>
      <point x="848" y="625" type="curve"/>
      <point x="984" y="685"/>
      <point x="1046" y="794"/>
      <point x="1046" y="927" type="curve" smooth="yes"/>
      <point x="1046" y="1094"/>
      <point x="924" y="1209"/>
      <point x="713" y="1209" type="curve" smooth="yes"/>
    </contour>
  </outline>
</glyph>
<glyph name="six" format="1">
  <advance width="1228"/>
  <unicode hex="0036"/>
  <outline>
    <contour>
      <point x="547" y="1185"/>
      <point x="215" y="852"/>
      <point x="215" y="352" type="curve" smooth="yes"/>
      <point x="215" y="155"/>
      <point x="321" y="-22"/>
      <point x="576" y="-22" type="curve" smooth="yes"/>
      <point x="872" y="-22"/>
      <point x="1035" y="202"/>
      <point x="1035" y="413" type="curve" smooth="yes"/>
      <point x="1035" y="604"/>
      <point x="901" y="731"/>
      <point x="707" y="731" type="curve" smooth="yes"/>
      <point x="591" y="731"/>
      <point x="483" y="685"/>
      <point x="397" y="600" type="curve"/>
      <point x="480" y="859"/>
      <point x="691" y="1043"/>
      <point x="1062" y="1062" type="curve"/>
      <point x="1089" y="1063"/>
      <point x="1110" y="1083"/>
      <point x="1110" y="1142" type="curve" smooth="yes"/>
      <point x="1110" y="1197"/>
      <point x="1087" y="1210"/>
      <point x="1057" y="1209" type="curve"/>
    </contour>
    <contour>
      <point x="809" y="583"/>
      <point x="881" y="517"/>
      <point x="881" y="403" type="curve" smooth="yes"/>
      <point x="881" y="274"/>
      <point x="787" y="126"/>
      <point x="582" y="126" type="curve" smooth="yes"/>
      <point x="446" y="126"/>
      <point x="367" y="204"/>
      <point x="367" y="319" type="curve" smooth="yes"/>
      <point x="367" y="486"/>
      <point x="518" y="583"/>
      <point x="679" y="583" type="curve" smooth="yes"/>
    </contour>
  </outline>
</glyph>
<glyph name="nine" format="1">
  <advance width="1228"/>
  <unicode hex="0039"/>
  <outline>
    <contour>
      <point x="424" y="1209"/>
      <point x="261" y="985"/>
      <point x="261" y="774" type="curve" smooth="yes"/>
      <point x="261" y="583"/>
      <point x="395" y="456"/>
      <point x="589" y="456" type="curve" smooth="yes"/>
      <point x="705" y="456"/>
      <point x="813" y="502"/>
      <point x="899" y="587" type="curve"/>
      <point x="816" y="328"/>
      <point x="605" y="144"/>
      <point x="234" y="125" type="curve"/>
      <point x="207" y="124"/>
      <point x="186" y="104"/>
      <point x="186" y="45" type="curve" smooth="yes"/>
      <point x="186" y="-10"/>
      <point x="209" y="-23"/>
      <point x="239" y="-22" type="curve"/>
      <point x="749" y="2"/>
      <point x="1081" y="335"/>
      <point x="1081" y="835" type="curve" smooth="yes"/>
      <point x="1081" y="1032"/>
      <point x="975" y="1209"/>
      <point x="720" y="1209" type="curve" smooth="yes"/>
    </contour>
    <contour>
      <point x="850" y="1061"/>
      <point x="929" y="983"/>
      <point x="929" y="868" type="curve" smooth="yes"/>
      <point x="929" y="701"/>
      <point x="778" y="604"/>
      <point x="617" y="604" type="curve" smooth="yes"/>
      <point x="487" y="604"/>
      <point x="415" y="670"/>
      <point x="415" y="784" type="curve" smooth="yes"/>
      <point x="415" y="913"/>
      <point x="509" y="1061"/>
      <point x="714" y="1061" type="curve" smooth="yes"/>
    </contour>
  </outline>
</glyph>
<glyph name="greater" format="1">
  <advance width="1228"/>
  <unicode hex="003E"/>
  <outline>
    <contour>
      <point x="906" y="590" type="line"/>
      <point x="184" y="272" type="line" smooth="yes"/>
      <point x="138" y="252"/>
      <point x="128" y="219"/>
      <point x="143" y="173" type="curve" smooth="yes"/>
      <point x="157" y="129"/>
      <point x="189" y="109"/>
      <point x="233" y="129" type="curve" smooth="yes"/>
      <point x="1078" y="510" type="line" smooth="yes"/>
      <point x="1112" y="526"/>
      <point x="1129" y="548"/>
      <point x="1135" y="583" type="curve" smooth="yes"/>
      <point x="1141" y="618"/>
      <point x="1131" y="640"/>
      <point x="1102" y="656" type="curve" smooth="yes"/>
      <point x="392" y="1037" type="line" smooth="yes"/>
      <point x="355" y="1057"/>
      <point x="322" y="1044"/>
      <point x="292" y="1000" type="curve" smooth="yes"/>
      <point x="261" y="954"/>
      <point x="266" y="925"/>
      <point x="304" y="905" type="curve" smooth="yes"/>
    </contour>
  </outline>
</glyph>
<glyph name="question" format="1">
  <advance width="1228"/>
  <unicode hex="003F"/>
  <outline>
    <contour>
      <point x="468" y="230"/>
      <point x="436" y="212"/>
      <point x="428" y="167" type="curve" smooth="yes"/>
      <point x="408" y="53" type="line" smooth="yes"/>
      <point x="400" y="8"/>
      <point x="437" y="-10"/>
      <point x="518" y="-10" type="curve" smooth="yes"/>
      <point x="599" y="-10"/>
      <point x="630" y="8"/>
      <point x="638" y="53" type="curve" smooth="yes"/>
      <point x="658" y="167" type="line" smooth="yes"/>
      <point x="666" y="212"/>
      <point x="630" y="230"/>
      <point x="549" y="230" type="curve" smooth="yes"/>
    </contour>
    <contour>
      <point x="643" y="1269"/>
      <point x="529" y="1241"/>
      <point x="418" y="1183" type="curve" smooth="yes"/>
      <point x="390" y="1168"/>
      <point x="375" y="1142"/>
      <point x="396" y="1091" type="curve" smooth="yes"/>
      <point x="415" y="1045"/>
      <point x="440" y="1041"/>
      <point x="474" y="1056" type="curve" smooth="yes"/>
      <point x="563" y="1095"/>
      <point x="656" y="1121"/>
      <point x="747" y="1121" type="curve" smooth="yes"/>
      <point x="857" y="1121"/>
      <point x="913" y="1069"/>
      <point x="913" y="990" type="curve" smooth="yes"/>
      <point x="913" y="867"/>
      <point x="828" y="809"/>
      <point x="655" y="744" type="curve" smooth="yes"/>
      <point x="581" y="716" type="line" smooth="yes"/>
      <point x="557" y="707"/>
      <point x="545" y="691"/>
      <point x="542" y="665" type="curve" smooth="yes"/>
      <point x="514" y="440" type="line" smooth="yes"/>
      <point x="510" y="409"/>
      <point x="532" y="389"/>
      <point x="574" y="389" type="curve" smooth="yes"/>
      <point x="616" y="389"/>
      <point x="645" y="409"/>
      <point x="652" y="440" type="curve" smooth="yes"/>
      <point x="690" y="606" type="line"/>
      <point x="933" y="696"/>
      <point x="1072" y="803"/>
      <point x="1072" y="997" type="curve" smooth="yes"/>
      <point x="1072" y="1160"/>
      <point x="961" y="1269"/>
      <point x="762" y="1269" type="curve" smooth="yes"/>
    </contour>
  </outline>
</glyph>
<glyph name="B" format="1">
  <advance width="1228"/>
  <unicode hex="0042"/>
  <outline>
    <contour>
      <point x="405" y="1187" type="line" smooth="yes"/>
      <point x="360" y="1187"/>
      <point x="341" y="1169"/>
      <point x="332" y="1119" type="curve" smooth="yes"/>
      <point x="146" y="68" type="line" smooth="yes"/>
      <point x="137" y="18"/>
      <point x="155" y="0"/>
      <point x="200" y="0" type="curve" smooth="yes"/>
      <point x="630" y="0" type="line" smooth="yes"/>
      <point x="928" y="0"/>
      <point x="1066" y="173"/>
      <point x="1066" y="366" type="curve" smooth="yes"/>
      <point x="1066" y="485"/>
      <point x="1010" y="573"/>
      <point x="909" y="612" type="curve"/>
      <point x="1023" y="673"/>
      <point x="1094" y="764"/>
      <point x="1094" y="914" type="curve" smooth="yes"/>
      <point x="1094" y="1076"/>
      <point x="991" y="1187"/>
      <point x="777" y="1187" type="curve" smooth="yes"/>
    </contour>
    <contour>
      <point x="840" y="531"/>
      <point x="909" y="476"/>
      <point x="909" y="368" type="curve" smooth="yes"/>
      <point x="909" y="221"/>
      <point x="796" y="144"/>
      <point x="620" y="144" type="curve" smooth="yes"/>
      <point x="310" y="144" type="line"/>
      <point x="378" y="531" type="line"/>
      <point x="701" y="531" type="line" smooth="yes"/>
    </contour>
    <contour>
      <point x="885" y="1043"/>
      <point x="941" y="994"/>
      <point x="941" y="897" type="curve" smooth="yes"/>
      <point x="941" y="764"/>
      <point x="844" y="675"/>
      <point x="672" y="675" type="curve" smooth="yes"/>
      <point x="404" y="675" type="line"/>
      <point x="468" y="1043" type="line"/>
      <point x="747" y="1043" type="line" smooth="yes"/>
    </contour>
  </outline>
</glyph>
<glyph name="D" format="1">
  <advance width="1228"/>
  <unicode hex="0044"/>
  <outline>
    <contour>
      <point x="375" y="1187" type="line" smooth="yes"/>
      <point x="330" y="1187"/>
      <point x="311" y="1169"/>
      <point x="302" y="1119" type="curve" smooth="yes"/>
      <point x="116" y="68" type="line" smooth="yes"/>
      <point x="107" y="18"/>
      <point x="125" y="0"/>
      <point x="170" y="0" type="curve" smooth="yes"/>
      <point x="522" y="0" type="line" smooth="yes"/>
      <point x="731" y="0"/>
      <point x="878" y="90"/>
      <point x="976" y="213" type="curve" smooth="yes"/>
      <point x="1098" y="366"/>
      <point x="1146" y="571"/>
      <point x="1146" y="724" type="curve" smooth="yes"/>
      <point x="1146" y="1011"/>
      <point x="974" y="1187"/>
      <point x="701" y="1187" type="curve" smooth="yes"/>
    </contour>
    <contour>
      <point x="869" y="1043"/>
      <point x="993" y="936"/>
      <point x="993" y="719" type="curve" smooth="yes"/>
      <point x="993" y="592"/>
      <point x="956" y="432"/>
      <point x="864" y="313" type="curve" smooth="yes"/>
      <point x="788" y="214"/>
      <point x="673" y="144"/>
      <point x="510" y="144" type="curve" smooth="yes"/>
      <point x="280" y="144" type="line"/>
      <point x="438" y="1043" type="line"/>
      <point x="668" y="1043" type="line" smooth="yes"/>
    </contour>
  </outline>
</glyph>
<glyph name="E" format="1">
  <advance width="1228"/>
  <unicode hex="0045"/>
  <outline>
    <contour>
      <point x="425" y="1187" type="line" smooth="yes"/>
      <point x="380" y="1187"/>
      <point x="361" y="1169"/>
      <point x="352" y="1119" type="curve" smooth="yes"/>
      <point x="166" y="68" type="line" smooth="yes"/>
      <point x="157" y="18"/>
      <point x="175" y="0"/>
      <point x="220" y="0" type="curve" smooth="yes"/>
      <point x="907" y="0" type="line" smooth="yes"/>
      <point x="952" y="0"/>
      <point x="973" y="20"/>
      <point x="982" y="72" type="curve" smooth="yes"/>
      <point x="991" y="124"/>
      <point x="977" y="144"/>
      <point x="932" y="144" type="curve" smooth="yes"/>
      <point x="330" y="144" type="line"/>
      <point x="488" y="1043" type="line"/>
      <point x="1070" y="1043" type="line" smooth="yes"/>
      <point x="1115" y="1043"/>
      <point x="1137" y="1063"/>
      <point x="1146" y="1115" type="curve" smooth="yes"/>
      <point x="1155" y="1167"/>
      <point x="1141" y="1187"/>
      <point x="1096" y="1187" type="curve" smooth="yes"/>
    </contour>
    <contour>
      <point x="379" y="684" type="line"/>
      <point x="354" y="540" type="line"/>
      <point x="857" y="540" type="line" smooth="yes"/>
      <point x="902" y="540"/>
      <point x="923" y="560"/>
      <point x="932" y="612" type="curve" smooth="yes"/>
      <point x="942" y="664"/>
      <point x="927" y="684"/>
      <point x="882" y="684" type="curve" smooth="yes"/>
    </contour>
  </outline>
</glyph>
<glyph name="G" format="1">
  <advance width="1228"/>
  <unicode hex="0047"/>
  <outline>
    <contour>
      <point x="388" y="1209"/>
      <point x="131" y="845"/>
      <point x="131" y="460" type="curve" smooth="yes"/>
      <point x="131" y="169"/>
      <point x="303" y="-22"/>
      <point x="575" y="-22" type="curve" smooth="yes"/>
      <point x="726" y="-22"/>
      <point x="867" y="6"/>
      <point x="988" y="65" type="curve" smooth="yes"/>
      <point x="1013" y="77"/>
      <point x="1030" y="102"/>
      <point x="1036" y="134" type="curve" smooth="yes"/>
      <point x="1105" y="526" type="line" smooth="yes"/>
      <point x="1114" y="576"/>
      <point x="1099" y="594"/>
      <point x="1054" y="594" type="curve" smooth="yes"/>
      <point x="700" y="594" type="line" smooth="yes"/>
      <point x="655" y="594"/>
      <point x="634" y="574"/>
      <point x="625" y="522" type="curve" smooth="yes"/>
      <point x="615" y="470"/>
      <point x="630" y="450"/>
      <point x="675" y="450" type="curve" smooth="yes"/>
      <point x="942" y="450" type="line"/>
      <point x="895" y="183" type="line"/>
      <point x="801" y="143"/>
      <point x="699" y="126"/>
      <point x="586" y="126" type="curve" smooth="yes"/>
      <point x="399" y="126"/>
      <point x="288" y="253"/>
      <point x="288" y="465" type="curve" smooth="yes"/>
      <point x="288" y="744"/>
      <point x="456" y="1061"/>
      <point x="761" y="1061" type="curve" smooth="yes"/>
      <point x="865" y="1061"/>
      <point x="976" y="1034"/>
      <point x="1064" y="981" type="curve" smooth="yes"/>
      <point x="1096" y="962"/>
      <point x="1129" y="969"/>
      <point x="1153" y="1016" type="curve" smooth="yes"/>
      <point x="1177" y="1062"/>
      <point x="1171" y="1094"/>
      <point x="1131" y="1117" type="curve" smooth="yes"/>
      <point x="1022" y="1180"/>
      <point x="896" y="1209"/>
      <point x="772" y="1209" type="curve" smooth="yes"/>
    </contour>
  </outline>
</glyph>
<glyph name="M" format="1">
  <advance width="1228"/>
  <unicode hex="004D"/>
  <outline>
    <contour>
      <point x="1111" y="1197" type="line" smooth="yes"/>
      <point x="1064" y="1197"/>
      <point x="1030" y="1177"/>
      <point x="1001" y="1132" type="curve" smooth="yes"/>
      <point x="636" y="562" type="line"/>
      <point x="471" y="1132" type="line" smooth="yes"/>
      <point x="458" y="1177"/>
      <point x="437" y="1197"/>
      <point x="390" y="1197" type="curve" smooth="yes"/>
      <point x="388" y="1197" type="line" smooth="yes"/>
      <point x="341" y="1197"/>
      <point x="314" y="1182"/>
      <point x="304" y="1132" type="curve" smooth="yes"/>
      <point x="84" y="55" type="line" smooth="yes"/>
      <point x="75" y="10"/>
      <point x="94" y="-10"/>
      <point x="148" y="-10" type="curve" smooth="yes"/>
      <point x="150" y="-10" type="line" smooth="yes"/>
      <point x="206" y="-10"/>
      <point x="224" y="9"/>
      <point x="233" y="55" type="curve" smooth="yes"/>
      <point x="398" y="868" type="line"/>
      <point x="526" y="422" type="line" smooth="yes"/>
      <point x="540" y="375"/>
      <point x="564" y="358"/>
      <point x="609" y="358" type="curve" smooth="yes"/>
      <point x="654" y="358"/>
      <point x="680" y="375"/>
      <point x="710" y="422" type="curve" smooth="yes"/>
      <point x="996" y="868" type="line"/>
      <point x="873" y="55" type="line" smooth="yes"/>
      <point x="866" y="9"/>
      <point x="882" y="-10"/>
      <point x="938" y="-10" type="curve" smooth="yes"/>
      <point x="940" y="-10" type="line" smooth="yes"/>
      <point x="995" y="-10"/>
      <point x="1015" y="10"/>
      <point x="1022" y="55" type="curve" smooth="yes"/>
      <point x="1182" y="1132" type="line" smooth="yes"/>
      <point x="1190" y="1182"/>
      <point x="1160" y="1197"/>
      <point x="1113" y="1197" type="curve" smooth="yes"/>
    </contour>
  </outline>
</glyph>
<glyph name="N" format="1">
  <advance width="1228"/>
  <unicode hex="004E"/>
  <outline>
    <contour>
      <point x="1119" y="1197" type="line" smooth="yes"/>
      <point x="1068" y="1197"/>
      <point x="1044" y="1178"/>
      <point x="1036" y="1132" type="curve" smooth="yes"/>
      <point x="886" y="277" type="line"/>
      <point x="882" y="277" type="line"/>
      <point x="475" y="1169" type="line" smooth="yes"/>
      <point x="467" y="1187"/>
      <point x="447" y="1197"/>
      <point x="418" y="1197" type="curve" smooth="yes"/>
      <point x="391" y="1197" type="line" smooth="yes"/>
      <point x="335" y="1197"/>
      <point x="312" y="1178"/>
      <point x="304" y="1132" type="curve" smooth="yes"/>
      <point x="114" y="55" type="line" smooth="yes"/>
      <point x="106" y="9"/>
      <point x="121" y="-10"/>
      <point x="175" y="-10" type="curve" smooth="yes"/>
      <point x="177" y="-10" type="line" smooth="yes"/>
      <point x="228" y="-10"/>
      <point x="252" y="9"/>
      <point x="260" y="55" type="curve" smooth="yes"/>
      <point x="415" y="931" type="line"/>
      <point x="419" y="931" type="line"/>
      <point x="829" y="33" type="line" smooth="yes"/>
      <point x="845" y="-1"/>
      <point x="866" y="-22"/>
      <point x="904" y="-22" type="curve" smooth="yes"/>
      <point x="956" y="-22"/>
      <point x="983" y="2"/>
      <point x="989" y="37" type="curve" smooth="yes"/>
      <point x="1182" y="1132" type="line" smooth="yes"/>
      <point x="1190" y="1178"/>
      <point x="1175" y="1197"/>
      <point x="1121" y="1197" type="curve" smooth="yes"/>
    </contour>
  </outline>
</glyph>
<glyph name="O" format="1">
  <advance width="1228"/>
  <unicode hex="004F"/>
  <outline>
    <contour>
      <point x="534" y="1209"/>
      <point x="375" y="1108"/>
      <point x="269" y="961" type="curve" smooth="yes"/>
      <point x="166" y="818"/>
      <point x="114" y="636"/>
      <point x="114" y="459" type="curve" smooth="yes"/>
      <point x="114" y="169"/>
      <point x="283" y="-22"/>
      <point x="555" y="-22" type="curve" smooth="yes"/>
      <point x="763" y="-22"/>
      <point x="922" y="79"/>
      <point x="1028" y="226" type="curve" smooth="yes"/>
      <point x="1131" y="369"/>
      <point x="1183" y="551"/>
      <point x="1183" y="728" type="curve" smooth="yes"/>
      <point x="1183" y="1018"/>
      <point x="1014" y="1209"/>
      <point x="742" y="1209" type="curve" smooth="yes"/>
    </contour>
    <contour>
      <point x="918" y="1061"/>
      <point x="1030" y="933"/>
      <point x="1030" y="722" type="curve" smooth="yes"/>
      <point x="1030" y="580"/>
      <point x="986" y="426"/>
      <point x="902" y="309" type="curve" smooth="yes"/>
      <point x="825" y="201"/>
      <point x="711" y="126"/>
      <point x="566" y="126" type="curve" smooth="yes"/>
      <point x="379" y="126"/>
      <point x="267" y="254"/>
      <point x="267" y="465" type="curve" smooth="yes"/>
      <point x="267" y="607"/>
      <point x="311" y="761"/>
      <point x="395" y="878" type="curve" smooth="yes"/>
      <point x="472" y="986"/>
      <point x="586" y="1061"/>
      <point x="731" y="1061" type="curve" smooth="yes"/>
    </contour>
  </outline>
</glyph>
<glyph name="P" format="1">
  <advance width="1228"/>
  <unicode hex="0050"/>
  <outline>
    <contour>
      <point x="435" y="1187" type="line" smooth="yes"/>
      <point x="390" y="1187"/>
      <point x="371" y="1169"/>
      <point x="362" y="1119" type="curve" smooth="yes"/>
      <point x="174" y="55" type="line" smooth="yes"/>
      <point x="166" y="9"/>
      <point x="181" y="-10"/>
      <point x="237" y="-10" type="curve" smooth="yes"/>
      <point x="239" y="-10" type="line" smooth="yes"/>
      <point x="292" y="-10"/>
      <point x="316" y="9"/>
      <point x="324" y="55" type="curve" smooth="yes"/>
      <point x="384" y="393" type="line"/>
      <point x="681" y="393" type="line" smooth="yes"/>
      <point x="1045" y="393"/>
      <point x="1187" y="637"/>
      <point x="1187" y="859" type="curve" smooth="yes"/>
      <point x="1187" y="1054"/>
      <point x="1050" y="1187"/>
      <point x="800" y="1187" type="curve" smooth="yes"/>
    </contour>
    <contour>
      <point x="946" y="1043"/>
      <point x="1033" y="972"/>
      <point x="1033" y="844" type="curve" smooth="yes"/>
      <point x="1033" y="694"/>
      <point x="940" y="537"/>
      <point x="680" y="537" type="curve" smooth="yes"/>
      <point x="409" y="537" type="line"/>
      <point x="498" y="1043" type="line"/>
      <point x="767" y="1043" type="line" smooth="yes"/>
    </contour>
  </outline>
</glyph>
<glyph name="R" format="1">
  <advance width="1228"/>
  <unicode hex="0052"/>
  <outline>
    <contour>
      <point x="435" y="1187" type="line" smooth="yes"/>
      <point x="390" y="1187"/>
      <point x="371" y="1169"/>
      <point x="362" y="1119" type="curve" smooth="yes"/>
      <point x="174" y="55" type="line" smooth="yes"/>
      <point x="166" y="9"/>
      <point x="181" y="-10"/>
      <point x="237" y="-10" type="curve" smooth="yes"/>
      <point x="239" y="-10" type="line" smooth="yes"/>
      <point x="292" y="-10"/>
      <point x="316" y="9"/>
      <point x="324" y="55" type="curve" smooth="yes"/>
      <point x="398" y="473" type="line"/>
      <point x="697" y="473" type="line"/>
      <point x="978" y="520"/>
      <point x="1114" y="672"/>
      <point x="1114" y="888" type="curve" smooth="yes"/>
      <point x="1114" y="1065"/>
      <point x="981" y="1187"/>
      <point x="740" y="1187" type="curve" smooth="yes"/>
    </contour>
    <contour>
      <point x="623" y="487" type="line"/>
      <point x="848" y="14" type="line" smooth="yes"/>
      <point x="864" y="-19"/>
      <point x="887" y="-23"/>
      <point x="939" y="0" type="curve" smooth="yes"/>
      <point x="991" y="23"/>
      <point x="997" y="47"/>
      <point x="978" y="86" type="curve" smooth="yes"/>
      <point x="778" y="502" type="line"/>
    </contour>
    <contour>
      <point x="874" y="1043"/>
      <point x="960" y="982"/>
      <point x="960" y="872" type="curve" smooth="yes"/>
      <point x="960" y="715"/>
      <point x="849" y="617"/>
      <point x="631" y="617" type="curve" smooth="yes"/>
      <point x="423" y="617" type="line"/>
      <point x="498" y="1043" type="line"/>
      <point x="717" y="1043" type="line" smooth="yes"/>
    </contour>
  </outline>
</glyph>
<glyph name="Y" format="1">
  <advance width="1228"/>
  <unicode hex="0059"/>
  <outline>
    <contour>
      <point x="1143" y="1213"/>
      <point x="1110" y="1205"/>
      <point x="1083" y="1172" type="curve" smooth="yes"/>
      <point x="620" y="607" type="line"/>
      <point x="668" y="601" type="line"/>
      <point x="404" y="1165" type="line" smooth="yes"/>
      <point x="389" y="1198"/>
      <point x="368" y="1209"/>
      <point x="314" y="1187" type="curve" smooth="yes"/>
      <point x="259" y="1165"/>
      <point x="252" y="1141"/>
      <point x="271" y="1101" type="curve" smooth="yes"/>
      <point x="576" y="457" type="line"/>
      <point x="680" y="457" type="line"/>
      <point x="1206" y="1090" type="line" smooth="yes"/>
      <point x="1239" y="1130"/>
      <point x="1234" y="1159"/>
      <point x="1187" y="1187" type="curve" smooth="yes"/>
    </contour>
    <contour>
      <point x="559" y="515" type="line"/>
      <point x="478" y="55" type="line" smooth="yes"/>
      <point x="470" y="9"/>
      <point x="485" y="-10"/>
      <point x="541" y="-10" type="curve" smooth="yes"/>
      <point x="543" y="-10" type="line" smooth="yes"/>
      <point x="596" y="-10"/>
      <point x="620" y="9"/>
      <point x="628" y="55" type="curve" smooth="yes"/>
      <point x="709" y="515" type="line"/>
    </contour>
  </outline>
</glyph>
<glyph name="bracketleft" format="1">
  <advance width="1228"/>
  <unicode hex="005B"/>
  <outline>
    <contour>
      <point x="565" y="1372" type="line" smooth="yes"/>
      <point x="520" y="1372"/>
      <point x="499" y="1354"/>
      <point x="490" y="1304" type="curve" smooth="yes"/>
      <point x="213" y="-265" type="line" smooth="yes"/>
      <point x="204" y="-315"/>
      <point x="219" y="-333"/>
      <point x="264" y="-333" type="curve" smooth="yes"/>
      <point x="678" y="-333" type="line" smooth="yes"/>
      <point x="723" y="-333"/>
      <point x="745" y="-313"/>
      <point x="754" y="-261" type="curve" smooth="yes"/>
      <point x="763" y="-209"/>
      <point x="749" y="-189"/>
      <point x="704" y="-189" type="curve" smooth="yes"/>
      <point x="377" y="-189" type="line"/>
      <point x="626" y="1228" type="line"/>
      <point x="953" y="1228" type="line" smooth="yes"/>
      <point x="998" y="1228"/>
      <point x="1020" y="1248"/>
      <point x="1029" y="1300" type="curve" smooth="yes"/>
      <point x="1038" y="1352"/>
      <point x="1024" y="1372"/>
      <point x="979" y="1372" type="curve" smooth="yes"/>
    </contour>
  </outline>
</glyph>
<glyph name="bracketright" format="1">
  <advance width="1228"/>
  <unicode hex="005D"/>
  <outline>
    <contour>
      <point x="593" y="1372" type="line" smooth="yes"/>
      <point x="548" y="1372"/>
      <point x="526" y="1352"/>
      <point x="517" y="1300" type="curve" smooth="yes"/>
      <point x="508" y="1248"/>
      <point x="522" y="1228"/>
      <point x="567" y="1228" type="curve" smooth="yes"/>
      <point x="894" y="1228" type="line"/>
      <point x="645" y="-189" type="line"/>
      <point x="318" y="-189" type="line" smooth="yes"/>
      <point x="273" y="-189"/>
      <point x="251" y="-209"/>
      <point x="242" y="-261" type="curve" smooth="yes"/>
      <point x="233" y="-313"/>
      <point x="247" y="-333"/>
      <point x="292" y="-333" type="curve" smooth="yes"/>
      <point x="706" y="-333" type="line" smooth="yes"/>
      <point x="751" y="-333"/>
      <point x="772" y="-315"/>
      <point x="781" y="-265" type="curve" smooth="yes"/>
      <point x="1058" y="1304" type="line" smooth="yes"/>
      <point x="1067" y="1354"/>
      <point x="1052" y="1372"/>
      <point x="1007" y="1372" type="curve" smooth="yes"/>
    </contour>
  </outline>
</glyph>
<glyph name="underscore" format="1">
  <advance width="1228"/>
  <unicode hex="005F"/>
  <outline>
    <contour>
      <point x="79" y="-249" type="line" smooth="yes"/>
      <point x="34" y="-249"/>
      <point x="13" y="-269"/>
      <point x="3" y="-321" type="curve" smooth="yes"/>
      <point x="-6" y="-373"/>
      <point x="9" y="-393"/>
      <point x="54" y="-393" type="curve" smooth="yes"/>
      <point x="1016" y="-393" type="line" smooth="yes"/>
      <point x="1061" y="-393"/>
      <point x="1082" y="-373"/>
      <point x="1091" y="-321" type="curve" smooth="yes"/>
      <point x="1101" y="-269"/>
      <point x="1086" y="-249"/>
      <point x="1041" y="-249" type="curve" smooth="yes"/>
    </contour>
  </outline>
</glyph>
<glyph name="a" format="1">
  <advance width="1228"/>
  <unicode hex="0061"/>
  <outline>
    <contour>
      <point x="305" y="946"/>
      <point x="143" y="625"/>
      <point x="143" y="366" type="curve" smooth="yes"/>
      <point x="143" y="127"/>
      <point x="293" y="-22"/>
      <point x="502" y="-22" type="curve" smooth="yes"/>
      <point x="653" y="-22"/>
      <point x="770" y="50"/>
      <point x="864" y="184" type="curve"/>
      <point x="859" y="196" type="line"/>
      <point x="859" y="69"/>
      <point x="933" y="0"/>
      <point x="1042" y="0" type="curve" smooth="yes"/>
      <point x="1053" y="0" type="line" smooth="yes"/>
      <point x="1098" y="0"/>
      <point x="1119" y="20"/>
      <point x="1129" y="72" type="curve" smooth="yes"/>
      <point x="1138" y="124"/>
      <point x="1123" y="144"/>
      <point x="1078" y="144" type="curve" smooth="yes"/>
      <point x="1073" y="144" type="line" smooth="yes"/>
      <point x="1012" y="144"/>
      <point x="975" y="188"/>
      <point x="991" y="279" type="curve" smooth="yes"/>
      <point x="1095" y="869" type="line" smooth="yes"/>
      <point x="1103" y="915"/>
      <point x="1088" y="934"/>
      <point x="1035" y="934" type="curve" smooth="yes"/>
      <point x="1033" y="934" type="line" smooth="yes"/>
      <point x="980" y="934"/>
      <point x="963" y="915"/>
      <point x="955" y="869" type="curve" smooth="yes"/>
      <point x="936" y="766" type="line"/>
      <point x="877" y="874"/>
      <point x="779" y="946"/>
      <point x="651" y="946" type="curve" smooth="yes"/>
    </contour>
    <contour>
      <point x="787" y="798"/>
      <point x="880" y="705"/>
      <point x="880" y="541" type="curve" smooth="yes"/>
      <point x="880" y="339"/>
      <point x="731" y="126"/>
      <point x="524" y="126" type="curve" smooth="yes"/>
      <point x="378" y="126"/>
      <point x="296" y="226"/>
      <point x="296" y="375" type="curve" smooth="yes"/>
      <point x="296" y="581"/>
      <point x="426" y="798"/>
      <point x="645" y="798" type="curve" smooth="yes"/>
    </contour>
  </outline>
</glyph>
<glyph name="d" format="1">
  <advance width="1228"/>
  <unicode hex="0064"/>
  <outline>
    <contour>
      <point x="1122" y="1322" type="line" smooth="yes"/>
      <point x="1069" y="1322"/>
      <point x="1045" y="1303"/>
      <point x="1037" y="1257" type="curve" smooth="yes"/>
      <point x="945" y="733" type="line"/>
      <point x="967" y="750" type="line"/>
      <point x="907" y="873"/>
      <point x="799" y="946"/>
      <point x="655" y="946" type="curve" smooth="yes"/>
      <point x="302" y="946"/>
      <point x="143" y="625"/>
      <point x="143" y="366" type="curve" smooth="yes"/>
      <point x="143" y="127"/>
      <point x="290" y="-22"/>
      <point x="505" y="-22" type="curve" smooth="yes"/>
      <point x="633" y="-22"/>
      <point x="749" y="31"/>
      <point x="849" y="134" type="curve"/>
      <point x="835" y="55" type="line" smooth="yes"/>
      <point x="827" y="9"/>
      <point x="842" y="-10"/>
      <point x="895" y="-10" type="curve" smooth="yes"/>
      <point x="897" y="-10" type="line" smooth="yes"/>
      <point x="950" y="-10"/>
      <point x="967" y="9"/>
      <point x="975" y="55" type="curve" smooth="yes"/>
      <point x="1187" y="1257" type="line" smooth="yes"/>
      <point x="1195" y="1303"/>
      <point x="1180" y="1322"/>
      <point x="1124" y="1322" type="curve" smooth="yes"/>
    </contour>
    <contour>
      <point x="803" y="798"/>
      <point x="904" y="705"/>
      <point x="904" y="541" type="curve" smooth="yes"/>
      <point x="904" y="335"/>
      <point x="768" y="126"/>
      <point x="531" y="126" type="curve" smooth="yes"/>
      <point x="378" y="126"/>
      <point x="296" y="226"/>
      <point x="296" y="375" type="curve" smooth="yes"/>
      <point x="296" y="581"/>
      <point x="424" y="798"/>
      <point x="649" y="798" type="curve" smooth="yes"/>
    </contour>
  </outline>
</glyph>
<glyph name="g" format="1">
  <advance width="1228"/>
  <unicode hex="0067"/>
  <outline>
    <contour>
      <point x="338" y="946"/>
      <point x="149" y="685"/>
      <point x="149" y="400" type="curve" smooth="yes"/>
      <point x="149" y="172"/>
      <point x="297" y="28"/>
      <point x="513" y="28" type="curve" smooth="yes"/>
      <point x="642" y="28"/>
      <point x="748" y="73"/>
      <point x="845" y="168" type="curve"/>
      <point x="813" y="-17" type="line" smooth="yes"/>
      <point x="788" y="-164"/>
      <point x="680" y="-262"/>
      <point x="496" y="-262" type="curve" smooth="yes"/>
      <point x="387" y="-262"/>
      <point x="266" y="-240"/>
      <point x="167" y="-196" type="curve" smooth="yes"/>
      <point x="135" y="-182"/>
      <point x="105" y="-194"/>
      <point x="85" y="-246" type="curve" smooth="yes"/>
      <point x="65" y="-297"/>
      <point x="78" y="-326"/>
      <point x="112" y="-340" type="curve" smooth="yes"/>
      <point x="222" y="-386"/>
      <point x="349" y="-410"/>
      <point x="480" y="-410" type="curve" smooth="yes"/>
      <point x="748" y="-410"/>
      <point x="916" y="-279"/>
      <point x="958" y="-40" type="curve" smooth="yes"/>
      <point x="1119" y="869" type="line" smooth="yes"/>
      <point x="1127" y="915"/>
      <point x="1112" y="934"/>
      <point x="1059" y="934" type="curve" smooth="yes"/>
      <point x="1057" y="934" type="line" smooth="yes"/>
      <point x="1004" y="934"/>
      <point x="987" y="915"/>
      <point x="979" y="869" type="curve" smooth="yes"/>
      <point x="960" y="766" type="line"/>
      <point x="900" y="877"/>
      <point x="801" y="946"/>
      <point x="665" y="946" type="curve" smooth="yes"/>
    </contour>
    <contour>
      <point x="804" y="798"/>
      <point x="908" y="710"/>
      <point x="908" y="556" type="curve" smooth="yes"/>
      <point x="908" y="383"/>
      <point x="789" y="176"/>
      <point x="540" y="176" type="curve" smooth="yes"/>
      <point x="385" y="176"/>
      <point x="302" y="271"/>
      <point x="302" y="412" type="curve" smooth="yes"/>
      <point x="302" y="602"/>
      <point x="425" y="798"/>
      <point x="649" y="798" type="curve" smooth="yes"/>
    </contour>
  </outline>
</glyph>
<glyph name="l" format="1">
  <advance width="1228"/>
  <unicode hex="006C"/>
  <outline>
    <contour>
      <point x="351" y="1312" type="line" smooth="yes"/>
      <point x="306" y="1312"/>
      <point x="284" y="1292"/>
      <point x="275" y="1240" type="curve" smooth="yes"/>
      <point x="266" y="1188"/>
      <point x="280" y="1168"/>
      <point x="325" y="1168" type="curve" smooth="yes"/>
      <point x="598" y="1168" type="line"/>
      <point x="447" y="307" type="line" smooth="yes"/>
      <point x="442" y="280"/>
      <point x="440" y="253"/>
      <point x="440" y="229" type="curve" smooth="yes"/>
      <point x="440" y="73"/>
      <point x="536" y="-22"/>
      <point x="709" y="-22" type="curve" smooth="yes"/>
      <point x="799" y="-22"/>
      <point x="890" y="-7"/>
      <point x="970" y="15" type="curve" smooth="yes"/>
      <point x="1013" y="27"/>
      <point x="1027" y="55"/>
      <point x="1017" y="105" type="curve" smooth="yes"/>
      <point x="1007" y="153"/>
      <point x="981" y="170"/>
      <point x="942" y="158" type="curve" smooth="yes"/>
      <point x="873" y="137"/>
      <point x="795" y="124"/>
      <point x="724" y="124" type="curve" smooth="yes"/>
      <point x="632" y="124"/>
      <point x="590" y="160"/>
      <point x="590" y="243" type="curve" smooth="yes"/>
      <point x="590" y="263"/>
      <point x="593" y="285"/>
      <point x="597" y="310" type="curve" smooth="yes"/>
      <point x="762" y="1244" type="line" smooth="yes"/>
      <point x="771" y="1294"/>
      <point x="754" y="1312"/>
      <point x="709" y="1312" type="curve" smooth="yes"/>
    </contour>
  </outline>
</glyph>
<glyph name="o" format="1">
  <advance width="1228"/>
  <unicode hex="006F"/>
  <outline>
    <contour>
      <point x="359" y="946"/>
      <point x="140" y="679"/>
      <point x="140" y="386" type="curve" smooth="yes"/>
      <point x="140" y="150"/>
      <point x="309" y="-22"/>
      <point x="560" y="-22" type="curve" smooth="yes"/>
      <point x="891" y="-22"/>
      <point x="1110" y="245"/>
      <point x="1110" y="538" type="curve" smooth="yes"/>
      <point x="1110" y="774"/>
      <point x="941" y="946"/>
      <point x="690" y="946" type="curve" smooth="yes"/>
    </contour>
    <contour>
      <point x="854" y="798"/>
      <point x="957" y="689"/>
      <point x="957" y="530" type="curve" smooth="yes"/>
      <point x="957" y="317"/>
      <point x="799" y="126"/>
      <point x="576" y="126" type="curve" smooth="yes"/>
      <point x="396" y="126"/>
      <point x="293" y="235"/>
      <point x="293" y="394" type="curve" smooth="yes"/>
      <point x="293" y="607"/>
      <point x="451" y="798"/>
      <point x="674" y="798" type="curve" smooth="yes"/>
    </contour>
  </outline>
</glyph>
<glyph name="v" format="1">
  <advance width="1228"/>
  <unicode hex="0076"/>
  <outline>
    <contour>
      <point x="1089" y="946"/>
      <point x="1064" y="942"/>
      <point x="1036" y="898" type="curve" smooth="yes"/>
      <point x="562" y="143" type="line"/>
      <point x="355" y="890" type="line" smooth="yes"/>
      <point x="343" y="934"/>
      <point x="318" y="938"/>
      <point x="264" y="924" type="curve" smooth="yes"/>
      <point x="207" y="909"/>
      <point x="195" y="884"/>
      <point x="207" y="840" type="curve" smooth="yes"/>
      <point x="433" y="40" type="line" smooth="yes"/>
      <point x="445" y="-3"/>
      <point x="474" y="-22"/>
      <point x="540" y="-22" type="curve" smooth="yes"/>
      <point x="606" y="-22"/>
      <point x="642" y="-3"/>
      <point x="669" y="40" type="curve" smooth="yes"/>
      <point x="1169" y="830" type="line" smooth="yes"/>
      <point x="1197" y="874"/>
      <point x="1186" y="901"/>
      <point x="1137" y="924" type="curve" smooth="yes"/>
    </contour>
  </outline>
</glyph>
<glyph name="braceleft" format="1">
  <advance width="1228"/>
  <unicode hex="007B"/>
  <outline>
    <contour>
      <point x="806" y="1372"/>
      <point x="641" y="1256"/>
      <point x="607" y="975" type="curve" smooth="yes"/>
      <point x="596" y="885" type="line" smooth="yes"/>
      <point x="575" y="717"/>
      <point x="479" y="613"/>
      <point x="276" y="613" type="curve" smooth="yes"/>
      <point x="231" y="613"/>
      <point x="209" y="593"/>
      <point x="202" y="541" type="curve" smooth="yes"/>
      <point x="195" y="489"/>
      <point x="210" y="469"/>
      <point x="255" y="469" type="curve" smooth="yes"/>
      <point x="468" y="469"/>
      <point x="519" y="376"/>
      <point x="480" y="203" type="curve" smooth="yes"/>
      <point x="459" y="110" type="line" smooth="yes"/>
      <point x="394" y="-180"/>
      <point x="531" y="-333"/>
      <point x="810" y="-333" type="curve" smooth="yes"/>
      <point x="855" y="-333"/>
      <point x="877" y="-313"/>
      <point x="884" y="-261" type="curve" smooth="yes"/>
      <point x="891" y="-209"/>
      <point x="879" y="-189"/>
      <point x="834" y="-189" type="curve" smooth="yes"/>
      <point x="632" y="-189"/>
      <point x="563" y="-96"/>
      <point x="605" y="101" type="curve" smooth="yes"/>
      <point x="629" y="213" type="line" smooth="yes"/>
      <point x="661" y="364"/>
      <point x="615" y="475"/>
      <point x="450" y="536" type="curve"/>
      <point x="451" y="546" type="line"/>
      <point x="633" y="599"/>
      <point x="719" y="705"/>
      <point x="742" y="875" type="curve" smooth="yes"/>
      <point x="752" y="947" type="line" smooth="yes"/>
      <point x="779" y="1143"/>
      <point x="862" y="1228"/>
      <point x="1066" y="1228" type="curve" smooth="yes"/>
      <point x="1111" y="1228"/>
      <point x="1132" y="1248"/>
      <point x="1139" y="1300" type="curve" smooth="yes"/>
      <point x="1146" y="1352"/>
      <point x="1130" y="1372"/>
      <point x="1085" y="1372" type="curve" smooth="yes"/>
    </contour>
  </outline>
</glyph>
<glyph name="braceright" format="1">
  <advance width="1228"/>
  <unicode hex="007D"/>
  <outline>
    <contour>
      <point x="443" y="-333"/>
      <point x="608" y="-214"/>
      <point x="642" y="64" type="curve" smooth="yes"/>
      <point x="658" y="194" type="line" smooth="yes"/>
      <point x="678" y="360"/>
      <point x="777" y="469"/>
      <point x="980" y="469" type="curve" smooth="yes"/>
      <point x="1025" y="469"/>
      <point x="1047" y="489"/>
      <point x="1054" y="541" type="curve" smooth="yes"/>
      <point x="1061" y="593"/>
      <point x="1046" y="613"/>
      <point x="1001" y="613" type="curve" smooth="yes"/>
      <point x="794" y="613"/>
      <point x="746" y="702"/>
      <point x="780" y="877" type="curve" smooth="yes"/>
      <point x="790" y="929" type="line" smooth="yes"/>
      <point x="846" y="1221"/>
      <point x="718" y="1372"/>
      <point x="439" y="1372" type="curve" smooth="yes"/>
      <point x="394" y="1372"/>
      <point x="372" y="1352"/>
      <point x="365" y="1300" type="curve" smooth="yes"/>
      <point x="358" y="1248"/>
      <point x="370" y="1228"/>
      <point x="415" y="1228" type="curve" smooth="yes"/>
      <point x="617" y="1228"/>
      <point x="680" y="1137"/>
      <point x="644" y="938" type="curve" smooth="yes"/>
      <point x="633" y="877" type="line" smooth="yes"/>
      <point x="606" y="729"/>
      <point x="647" y="611"/>
      <point x="806" y="550" type="curve"/>
      <point x="805" y="540" type="line"/>
      <point x="623" y="487"/>
      <point x="536" y="378"/>
      <point x="513" y="210" type="curve" smooth="yes"/>
      <point x="497" y="92" type="line" smooth="yes"/>
      <point x="471" y="-102"/>
      <point x="387" y="-189"/>
      <point x="183" y="-189" type="curve" smooth="yes"/>
      <point x="138" y="-189"/>
      <point x="117" y="-209"/>
      <point x="110" y="-261" type="curve" smooth="yes"/>
      <point x="103" y="-313"/>
      <point x="119" y="-333"/>
      <point x="164" y="-333" type="curve" smooth="yes"/>
    </contour>
  </outline>
</glyph>
<glyph name="currency" format="1">
  <advance width="1228"/>
  <unicode hex="00A4"/>
  <outline>
    <contour>
      <point x="435" y="1006"/>
      <point x="247" y="791"/>
      <point x="247" y="545" type="curve" smooth="yes"/>
      <point x="247" y="341"/>
      <point x="389" y="198"/>
      <point x="604" y="198" type="curve" smooth="yes"/>
      <point x="865" y="198"/>
      <point x="1053" y="413"/>
      <point x="1053" y="659" type="curve" smooth="yes"/>
      <point x="1053" y="863"/>
      <point x="911" y="1006"/>
      <point x="696" y="1006" type="curve" smooth="yes"/>
    </contour>
    <contour>
      <point x="125" y="255" type="line" smooth="yes"/>
      <point x="90" y="226"/>
      <point x="89" y="199"/>
      <point x="122" y="159" type="curve" smooth="yes"/>
      <point x="156" y="119"/>
      <point x="183" y="116"/>
      <point x="217" y="145" type="curve" smooth="yes"/>
      <point x="421" y="316" type="line"/>
      <point x="332" y="428" type="line"/>
    </contour>
    <contour>
      <point x="791" y="322" type="line"/>
      <point x="950" y="133" type="line" smooth="yes"/>
      <point x="979" y="98"/>
      <point x="1006" y="97"/>
      <point x="1046" y="130" type="curve" smooth="yes"/>
      <point x="1086" y="164"/>
      <point x="1089" y="191"/>
      <point x="1060" y="225" type="curve" smooth="yes"/>
      <point x="900" y="415" type="line"/>
    </contour>
    <contour>
      <point x="825" y="864"/>
      <point x="906" y="778"/>
      <point x="906" y="652" type="curve" smooth="yes"/>
      <point x="906" y="497"/>
      <point x="796" y="340"/>
      <point x="614" y="340" type="curve" smooth="yes"/>
      <point x="475" y="340"/>
      <point x="394" y="426"/>
      <point x="394" y="552" type="curve" smooth="yes"/>
      <point x="394" y="707"/>
      <point x="504" y="864"/>
      <point x="686" y="864" type="curve" smooth="yes"/>
    </contour>
    <contour>
      <point x="214" y="1040"/>
      <point x="211" y="1013"/>
      <point x="240" y="979" type="curve" smooth="yes"/>
      <point x="400" y="789" type="line"/>
      <point x="509" y="882" type="line"/>
      <point x="350" y="1071" type="line" smooth="yes"/>
      <point x="321" y="1106"/>
      <point x="294" y="1107"/>
      <point x="254" y="1074" type="curve" smooth="yes"/>
    </contour>
    <contour>
      <point x="879" y="888" type="line"/>
      <point x="968" y="776" type="line"/>
      <point x="1175" y="949" type="line" smooth="yes"/>
      <point x="1210" y="978"/>
      <point x="1211" y="1005"/>
      <point x="1178" y="1045" type="curve" smooth="yes"/>
      <point x="1144" y="1085"/>
      <point x="1117" y="1088"/>
      <point x="1083" y="1059" type="curve" smooth="yes"/>
    </contour>
  </outline>
</glyph>
<glyph name="macron" format="1">
  <advance width="1228"/>
  <unicode hex="00AF"/>
  <outline>
    <contour>
      <point x="483" y="1250" type="line" smooth="yes"/>
      <point x="438" y="1250"/>
      <point x="416" y="1230"/>
      <point x="407" y="1178" type="curve" smooth="yes"/>
      <point x="398" y="1126"/>
      <point x="413" y="1106"/>
      <point x="458" y="1106" type="curve" smooth="yes"/>
      <point x="1020" y="1106" type="line" smooth="yes"/>
      <point x="1065" y="1106"/>
      <point x="1086" y="1126"/>
      <point x="1095" y="1178" type="curve" smooth="yes"/>
      <point x="1104" y="1230"/>
      <point x="1090" y="1250"/>
      <point x="1045" y="1250" type="curve" smooth="yes"/>
    </contour>
  </outline>
</glyph>
<glyph name="twosuperior" format="1">
  <advance width="1228"/>
  <unicode hex="00B2"/>
  <outline>
    <contour>
      <point x="679" y="1334"/>
      <point x="564" y="1309"/>
      <point x="471" y="1260" type="curve" smooth="yes"/>
      <point x="442" y="1245"/>
      <point x="443" y="1220"/>
      <point x="456" y="1188" type="curve" smooth="yes"/>
      <point x="469" y="1155"/>
      <point x="488" y="1137"/>
      <point x="520" y="1151" type="curve" smooth="yes"/>
      <point x="589" y="1182"/>
      <point x="677" y="1205"/>
      <point x="749" y="1205" type="curve" smooth="yes"/>
      <point x="838" y="1205"/>
      <point x="883" y="1163"/>
      <point x="883" y="1099" type="curve" smooth="yes"/>
      <point x="883" y="1023"/>
      <point x="836" y="971"/>
      <point x="739" y="900" type="curve" smooth="yes"/>
      <point x="358" y="620" type="line" smooth="yes"/>
      <point x="336" y="604"/>
      <point x="320" y="584"/>
      <point x="315" y="555" type="curve" smooth="yes"/>
      <point x="307" y="509"/>
      <point x="318" y="483"/>
      <point x="350" y="483" type="curve" smooth="yes"/>
      <point x="906" y="483" type="line" smooth="yes"/>
      <point x="938" y="483"/>
      <point x="955" y="501"/>
      <point x="961" y="546" type="curve" smooth="yes"/>
      <point x="967" y="591"/>
      <point x="952" y="608"/>
      <point x="920" y="608" type="curve" smooth="yes"/>
      <point x="544" y="608" type="line"/>
      <point x="818" y="806" type="line" smooth="yes"/>
      <point x="962" y="910"/>
      <point x="1026" y="992"/>
      <point x="1026" y="1111" type="curve" smooth="yes"/>
      <point x="1026" y="1250"/>
      <point x="930" y="1334"/>
      <point x="773" y="1334" type="curve" smooth="yes"/>
    </contour>
  </outline>
</glyph>
<glyph name="threesuperior" format="1">
  <advance width="1228"/>
  <unicode hex="00B3"/>
  <outline>
    <contour>
      <point x="666" y="1334"/>
      <point x="571" y="1314"/>
      <point x="486" y="1274" type="curve" smooth="yes"/>
      <point x="458" y="1261"/>
      <point x="449" y="1235"/>
      <point x="459" y="1200" type="curve" smooth="yes"/>
      <point x="471" y="1158"/>
      <point x="493" y="1143"/>
      <point x="520" y="1155" type="curve" smooth="yes"/>
      <point x="593" y="1186"/>
      <point x="667" y="1205"/>
      <point x="745" y="1205" type="curve" smooth="yes"/>
      <point x="827" y="1205"/>
      <point x="883" y="1171"/>
      <point x="883" y="1104" type="curve" smooth="yes"/>
      <point x="883" y="1021"/>
      <point x="830" y="965"/>
      <point x="689" y="965" type="curve" smooth="yes"/>
      <point x="650" y="965" type="line" smooth="yes"/>
      <point x="616" y="965"/>
      <point x="601" y="941"/>
      <point x="595" y="905" type="curve" smooth="yes"/>
      <point x="589" y="868"/>
      <point x="595" y="840"/>
      <point x="628" y="840" type="curve" smooth="yes"/>
      <point x="680" y="840" type="line" smooth="yes"/>
      <point x="779" y="840"/>
      <point x="845" y="817"/>
      <point x="845" y="741" type="curve" smooth="yes"/>
      <point x="845" y="647"/>
      <point x="765" y="594"/>
      <point x="633" y="594" type="curve" smooth="yes"/>
      <point x="568" y="594"/>
      <point x="486" y="614"/>
      <point x="415" y="648" type="curve" smooth="yes"/>
      <point x="387" y="661"/>
      <point x="366" y="648"/>
      <point x="345" y="609" type="curve" smooth="yes"/>
      <point x="324" y="570"/>
      <point x="329" y="545"/>
      <point x="351" y="532" type="curve" smooth="yes"/>
      <point x="427" y="489"/>
      <point x="526" y="465"/>
      <point x="628" y="465" type="curve" smooth="yes"/>
      <point x="863" y="465"/>
      <point x="987" y="584"/>
      <point x="987" y="751" type="curve" smooth="yes"/>
      <point x="987" y="828"/>
      <point x="947" y="884"/>
      <point x="878" y="913" type="curve"/>
      <point x="971" y="956"/>
      <point x="1026" y="1030"/>
      <point x="1026" y="1121" type="curve" smooth="yes"/>
      <point x="1026" y="1251"/>
      <point x="931" y="1334"/>
      <point x="764" y="1334" type="curve" smooth="yes"/>
    </contour>
  </outline>
</glyph>
<glyph name="cedilla" format="1">
  <advance width="1228"/>
  <unicode hex="00B8"/>
  <outline>
    <contour>
      <point x="463" y="28" type="line"/>
      <point x="428" y="-175" type="line" smooth="yes"/>
      <point x="421" y="-213"/>
      <point x="441" y="-218"/>
      <point x="460" y="-217" type="curve" smooth="yes"/>
      <point x="545" y="-212"/>
      <point x="594" y="-226"/>
      <point x="594" y="-271" type="curve" smooth="yes"/>
      <point x="594" y="-317"/>
      <point x="558" y="-352"/>
      <point x="478" y="-352" type="curve" smooth="yes"/>
      <point x="411" y="-352"/>
      <point x="340" y="-338"/>
      <point x="291" y="-318" type="curve" smooth="yes"/>
      <point x="269" y="-309"/>
      <point x="245" y="-329"/>
      <point x="232" y="-354" type="curve" smooth="yes"/>
      <point x="218" y="-380"/>
      <point x="216" y="-412"/>
      <point x="239" y="-424" type="curve" smooth="yes"/>
      <point x="302" y="-456"/>
      <point x="388" y="-472"/>
      <point x="477" y="-472" type="curve" smooth="yes"/>
      <point x="581" y="-472"/>
      <point x="653" y="-445"/>
      <point x="697" y="-398" type="curve" smooth="yes"/>
      <point x="734" y="-359"/>
      <point x="751" y="-299"/>
      <point x="751" y="-258" type="curve" smooth="yes"/>
      <point x="751" y="-178"/>
      <point x="696" y="-111"/>
      <point x="573" y="-114" type="curve"/>
      <point x="598" y="28" type="line"/>
    </contour>
  </outline>
</glyph>
<glyph name="AE" format="1">
  <advance width="1228"/>
  <unicode hex="00C6"/>
  <outline>
    <contour>
      <point x="658" y="1187" type="line" smooth="yes"/>
      <point x="613" y="1187"/>
      <point x="585" y="1169"/>
      <point x="557" y="1119" type="curve" smooth="yes"/>
      <point x="-26" y="91" type="line" smooth="yes"/>
      <point x="-51" y="47"/>
      <point x="-43" y="22"/>
      <point x="4" y="0" type="curve" smooth="yes"/>
      <point x="52" y="-23"/>
      <point x="85" y="-16"/>
      <point x="110" y="28" type="curve" smooth="yes"/>
      <point x="319" y="398" type="line"/>
      <point x="346" y="448" type="line"/>
      <point x="669" y="1043" type="line"/>
      <point x="689" y="1043" type="line"/>
      <point x="516" y="68" type="line" smooth="yes"/>
      <point x="507" y="18"/>
      <point x="525" y="0"/>
      <point x="570" y="0" type="curve" smooth="yes"/>
      <point x="1037" y="0" type="line" smooth="yes"/>
      <point x="1082" y="0"/>
      <point x="1103" y="20"/>
      <point x="1112" y="72" type="curve" smooth="yes"/>
      <point x="1121" y="124"/>
      <point x="1107" y="144"/>
      <point x="1062" y="144" type="curve" smooth="yes"/>
      <point x="680" y="144" type="line"/>
      <point x="750" y="540" type="line"/>
      <point x="1067" y="540" type="line" smooth="yes"/>
      <point x="1112" y="540"/>
      <point x="1133" y="560"/>
      <point x="1142" y="612" type="curve" smooth="yes"/>
      <point x="1152" y="664"/>
      <point x="1137" y="684"/>
      <point x="1092" y="684" type="curve" smooth="yes"/>
      <point x="775" y="684" type="line"/>
      <point x="838" y="1043" type="line"/>
      <point x="1200" y="1043" type="line" smooth="yes"/>
      <point x="1245" y="1043"/>
      <point x="1267" y="1063"/>
      <point x="1276" y="1115" type="curve" smooth="yes"/>
      <point x="1285" y="1167"/>
      <point x="1271" y="1187"/>
      <point x="1226" y="1187" type="curve" smooth="yes"/>
    </contour>
    <contour>
      <point x="298" y="514" type="line"/>
      <point x="248" y="370" type="line"/>
      <point x="612" y="370" type="line"/>
      <point x="649" y="514" type="line"/>
    </contour>
  </outline>
</glyph>
<glyph name="Eth" format="1">
  <advance width="1228"/>
  <unicode hex="00D0"/>
  <outline>
    <contour>
      <point x="163" y="684" type="line" smooth="yes"/>
      <point x="118" y="684"/>
      <point x="96" y="664"/>
      <point x="87" y="612" type="curve" smooth="yes"/>
      <point x="78" y="560"/>
      <point x="92" y="540"/>
      <point x="137" y="540" type="curve" smooth="yes"/>
      <point x="619" y="540" type="line" smooth="yes"/>
      <point x="664" y="540"/>
      <point x="686" y="560"/>
      <point x="695" y="612" type="curve" smooth="yes"/>
      <point x="704" y="664"/>
      <point x="690" y="684"/>
      <point x="645" y="684" type="curve" smooth="yes"/>
    </contour>
    <contour>
      <point x="425" y="1187" type="line" smooth="yes"/>
      <point x="380" y="1187"/>
      <point x="361" y="1169"/>
      <point x="352" y="1119" type="curve" smooth="yes"/>
      <point x="166" y="68" type="line" smooth="yes"/>
      <point x="157" y="18"/>
      <point x="175" y="0"/>
      <point x="220" y="0" type="curve" smooth="yes"/>
      <point x="522" y="0" type="line" smooth="yes"/>
      <point x="731" y="0"/>
      <point x="878" y="90"/>
      <point x="976" y="213" type="curve" smooth="yes"/>
      <point x="1098" y="366"/>
      <point x="1146" y="571"/>
      <point x="1146" y="724" type="curve" smooth="yes"/>
      <point x="1146" y="1011"/>
      <point x="974" y="1187"/>
      <point x="701" y="1187" type="curve" smooth="yes"/>
    </contour>
    <contour>
      <point x="869" y="1043"/>
      <point x="993" y="936"/>
      <point x="993" y="719" type="curve" smooth="yes"/>
      <point x="993" y="592"/>
      <point x="956" y="432"/>
      <point x="864" y="313" type="curve" smooth="yes"/>
      <point x="788" y="214"/>
      <point x="673" y="144"/>
      <point x="510" y="144" type="curve" smooth="yes"/>
      <point x="330" y="144" type="line"/>
      <point x="488" y="1043" type="line"/>
      <point x="668" y="1043" type="line" smooth="yes"/>
    </contour>
  </outline>
</glyph>
<glyph name="oslash" format="1">
  <advance width="1228"/>
  <unicode hex="00F8"/>
  <outline>
    <contour>
      <point x="55" y="81" type="line" smooth="yes"/>
      <point x="16" y="49"/>
      <point x="19" y="22"/>
      <point x="49" y="-13" type="curve" smooth="yes"/>
      <point x="79" y="-47"/>
      <point x="112" y="-51"/>
      <point x="151" y="-19" type="curve" smooth="yes"/>
      <point x="1193" y="842" type="line" smooth="yes"/>
      <point x="1232" y="874"/>
      <point x="1231" y="902"/>
      <point x="1201" y="937" type="curve" smooth="yes"/>
      <point x="1171" y="971"/>
      <point x="1137" y="975"/>
      <point x="1098" y="943" type="curve" smooth="yes"/>
    </contour>
    <component base="o"/>
  </outline>
</glyph>
<glyph name="Aogonek" format="1">
  <advance width="1228"/>
  <unicode hex="0104"/>
  <outline>
    <contour>
      <point x="692" y="1209"/>
      <point x="657" y="1191"/>
      <point x="631" y="1144" type="curve" smooth="yes"/>
      <point x="54" y="91" type="line" smooth="yes"/>
      <point x="30" y="47"/>
      <point x="38" y="23"/>
      <point x="87" y="0" type="curve" smooth="yes"/>
      <point x="135" y="-23"/>
      <point x="168" y="-16"/>
      <point x="192" y="28" type="curve" smooth="yes"/>
      <point x="356" y="330" type="line"/>
      <point x="860" y="330" type="line"/>
      <point x="918" y="33" type="line"/>
      <point x="763" y="-78"/>
      <point x="673" y="-188"/>
      <point x="673" y="-310" type="curve" smooth="yes"/>
      <point x="673" y="-406"/>
      <point x="731" y="-472"/>
      <point x="838" y="-472" type="curve" smooth="yes"/>
      <point x="902" y="-472"/>
      <point x="967" y="-460"/>
      <point x="1016" y="-443" type="curve" smooth="yes"/>
      <point x="1047" y="-432"/>
      <point x="1057" y="-411"/>
      <point x="1052" y="-374" type="curve" smooth="yes"/>
      <point x="1047" y="-337"/>
      <point x="1032" y="-322"/>
      <point x="1005" y="-326" type="curve" smooth="yes"/>
      <point x="969" y="-332"/>
      <point x="933" y="-336"/>
      <point x="894" y="-336" type="curve" smooth="yes"/>
      <point x="854" y="-336"/>
      <point x="829" y="-316"/>
      <point x="829" y="-277" type="curve" smooth="yes"/>
      <point x="829" y="-204"/>
      <point x="900" y="-114"/>
      <point x="1055" y="8" type="curve" smooth="yes"/>
      <point x="1070" y="20"/>
      <point x="1071" y="37"/>
      <point x="1066" y="63" type="curve" smooth="yes"/>
      <point x="855" y="1144" type="line" smooth="yes"/>
      <point x="846" y="1191"/>
      <point x="818" y="1209"/>
      <point x="755" y="1209" type="curve" smooth="yes"/>
    </contour>
    <contour>
      <point x="833" y="474" type="line"/>
      <point x="433" y="474" type="line"/>
      <point x="731" y="1043" type="line"/>
    </contour>
  </outline>
</glyph>
<glyph name="dcaron" format="1">
  <advance width="1228"/>
  <unicode hex="010F"/>
  <outline>
    <contour>
      <point x="1012" y="1322" type="line" smooth="yes"/>
      <point x="959" y="1322"/>
      <point x="935" y="1303"/>
      <point x="927" y="1257" type="curve" smooth="yes"/>
      <point x="838" y="752" type="line"/>
      <point x="859" y="768" type="line"/>
      <point x="817" y="873"/>
      <point x="721" y="946"/>
      <point x="605" y="946" type="curve" smooth="yes"/>
      <point x="280" y="946"/>
      <point x="133" y="625"/>
      <point x="133" y="366" type="curve" smooth="yes"/>
      <point x="133" y="127"/>
      <point x="264" y="-22"/>
      <point x="455" y="-22" type="curve" smooth="yes"/>
      <point x="556" y="-22"/>
      <point x="654" y="24"/>
      <point x="735" y="113" type="curve"/>
      <point x="725" y="55" type="line" smooth="yes"/>
      <point x="717" y="9"/>
      <point x="732" y="-10"/>
      <point x="785" y="-10" type="curve" smooth="yes"/>
      <point x="787" y="-10" type="line" smooth="yes"/>
      <point x="840" y="-10"/>
      <point x="857" y="9"/>
      <point x="865" y="55" type="curve" smooth="yes"/>
      <point x="1077" y="1257" type="line" smooth="yes"/>
      <point x="1085" y="1303"/>
      <point x="1070" y="1322"/>
      <point x="1014" y="1322" type="curve" smooth="yes"/>
    </contour>
    <contour>
      <point x="717" y="798"/>
      <point x="794" y="705"/>
      <point x="794" y="541" type="curve" smooth="yes"/>
      <point x="794" y="335"/>
      <point x="682" y="126"/>
      <point x="481" y="126" type="curve" smooth="yes"/>
      <point x="354" y="126"/>
      <point x="286" y="226"/>
      <point x="286" y="375" type="curve" smooth="yes"/>
      <point x="286" y="581"/>
      <point x="398" y="798"/>
      <point x="599" y="798" type="curve" smooth="yes"/>
    </contour>
    <component base="caron.alt" xOffset="807"/>
  </outline>
</glyph>
<glyph name="dcroat" format="1">
  <advance width="1228"/>
  <unicode hex="0111"/>
  <outline>
    <contour>
      <point x="1103" y="1322" type="line" smooth="yes"/>
      <point x="1047" y="1322"/>
      <point x="1026" y="1303"/>
      <point x="1018" y="1257" type="curve" smooth="yes"/>
      <point x="915" y="674" type="line"/>
      <point x="948" y="698" type="line"/>
      <point x="889" y="811"/>
      <point x="785" y="886"/>
      <point x="641" y="886" type="curve" smooth="yes"/>
      <point x="352" y="886"/>
      <point x="159" y="641"/>
      <point x="159" y="347" type="curve" smooth="yes"/>
      <point x="159" y="114"/>
      <point x="303" y="-22"/>
      <point x="511" y="-22" type="curve" smooth="yes"/>
      <point x="652" y="-22"/>
      <point x="772" y="54"/>
      <point x="865" y="168" type="curve"/>
      <point x="842" y="205" type="line"/>
      <point x="816" y="55" type="line" smooth="yes"/>
      <point x="808" y="9"/>
      <point x="820" y="-10"/>
      <point x="873" y="-10" type="curve" smooth="yes"/>
      <point x="875" y="-10" type="line" smooth="yes"/>
      <point x="928" y="-10"/>
      <point x="948" y="9"/>
      <point x="956" y="55" type="curve" smooth="yes"/>
      <point x="1168" y="1257" type="line" smooth="yes"/>
      <point x="1176" y="1303"/>
      <point x="1161" y="1322"/>
      <point x="1105" y="1322" type="curve" smooth="yes"/>
    </contour>
    <contour>
      <point x="783" y="738"/>
      <point x="879" y="653"/>
      <point x="879" y="503" type="curve" smooth="yes"/>
      <point x="879" y="326"/>
      <point x="761" y="126"/>
      <point x="531" y="126" type="curve" smooth="yes"/>
      <point x="387" y="126"/>
      <point x="312" y="219"/>
      <point x="312" y="356" type="curve" smooth="yes"/>
      <point x="312" y="532"/>
      <point x="422" y="738"/>
      <point x="639" y="738" type="curve" smooth="yes"/>
    </contour>
    <contour>
      <point x="746" y="1150" type="line" smooth="yes"/>
      <point x="701" y="1150"/>
      <point x="679" y="1130"/>
      <point x="670" y="1078" type="curve" smooth="yes"/>
      <point x="661" y="1026"/>
      <point x="675" y="1006"/>
      <point x="720" y="1006" type="curve" smooth="yes"/>
      <point x="1262" y="1006" type="line" smooth="yes"/>
      <point x="1307" y="1006"/>
      <point x="1329" y="1026"/>
      <point x="1338" y="1078" type="curve" smooth="yes"/>
      <point x="1347" y="1130"/>
      <point x="1333" y="1150"/>
      <point x="1288" y="1150" type="curve" smooth="yes"/>
    </contour>
  </outline>
</glyph>
<glyph name="eogonek" format="1">
  <advance width="1228"/>
  <unicode hex="0119"/>
  <outline>
    <contour>
      <point x="383" y="946"/>
      <point x="154" y="684"/>
      <point x="154" y="354" type="curve" smooth="yes"/>
      <point x="154" y="122"/>
      <point x="291" y="-22"/>
      <point x="543" y="-22" type="curve" smooth="yes"/>
      <point x="596" y="-22"/>
      <point x="649" y="-18"/>
      <point x="701" y="-10" type="curve"/>
      <point x="580" y="-107"/>
      <point x="512" y="-204"/>
      <point x="512" y="-310" type="curve" smooth="yes"/>
      <point x="512" y="-406"/>
      <point x="570" y="-472"/>
      <point x="677" y="-472" type="curve" smooth="yes"/>
      <point x="741" y="-472"/>
      <point x="806" y="-460"/>
      <point x="855" y="-443" type="curve" smooth="yes"/>
      <point x="886" y="-432"/>
      <point x="896" y="-411"/>
      <point x="891" y="-374" type="curve" smooth="yes"/>
      <point x="886" y="-337"/>
      <point x="871" y="-322"/>
      <point x="844" y="-326" type="curve" smooth="yes"/>
      <point x="808" y="-332"/>
      <point x="772" y="-336"/>
      <point x="733" y="-336" type="curve" smooth="yes"/>
      <point x="693" y="-336"/>
      <point x="668" y="-316"/>
      <point x="668" y="-277" type="curve" smooth="yes"/>
      <point x="668" y="-195"/>
      <point x="757" y="-84"/>
      <point x="996" y="86" type="curve" smooth="yes"/>
      <point x="1021" y="104"/>
      <point x="1026" y="129"/>
      <point x="1014" y="166" type="curve" smooth="yes"/>
      <point x="998" y="217"/>
      <point x="966" y="232"/>
      <point x="933" y="215" type="curve" smooth="yes"/>
      <point x="832" y="164"/>
      <point x="692" y="123"/>
      <point x="558" y="123" type="curve" smooth="yes"/>
      <point x="404" y="123"/>
      <point x="309" y="192"/>
      <point x="306" y="354" type="curve"/>
      <point x="857" y="411" type="line" smooth="yes"/>
      <point x="1019" y="428"/>
      <point x="1081" y="520"/>
      <point x="1081" y="655" type="curve" smooth="yes"/>
      <point x="1081" y="821"/>
      <point x="945" y="946"/>
      <point x="723" y="946" type="curve" smooth="yes"/>
    </contour>
    <contour>
      <point x="853" y="801"/>
      <point x="927" y="734"/>
      <point x="927" y="650" type="curve" smooth="yes"/>
      <point x="927" y="592"/>
      <point x="903" y="558"/>
      <point x="826" y="550" type="curve" smooth="yes"/>
      <point x="322" y="492" type="line"/>
      <point x="365" y="670"/>
      <point x="501" y="801"/>
      <point x="708" y="801" type="curve" smooth="yes"/>
    </contour>
  </outline>
</glyph>
<glyph name="Hbar" format="1">
  <advance width="1228"/>
  <unicode hex="0126"/>
  <outline>
    <contour>
      <point x="195" y="974" type="line" smooth="yes"/>
      <point x="150" y="974"/>
      <point x="128" y="954"/>
      <point x="119" y="902" type="curve" smooth="yes"/>
      <point x="110" y="850"/>
      <point x="124" y="830"/>
      <point x="169" y="830" type="curve" smooth="yes"/>
      <point x="1211" y="830" type="line" smooth="yes"/>
      <point x="1256" y="830"/>
      <point x="1278" y="850"/>
      <point x="1287" y="902" type="curve" smooth="yes"/>
      <point x="1296" y="954"/>
      <point x="1282" y="974"/>
      <point x="1237" y="974" type="curve" smooth="yes"/>
    </contour>
    <component base="H"/>
  </outline>
</glyph>
<glyph name="hbar" format="1">
  <advance width="1228"/>
  <unicode hex="0127"/>
  <outline>
    <contour>
      <point x="458" y="1322" type="line" smooth="yes"/>
      <point x="405" y="1322"/>
      <point x="381" y="1303"/>
      <point x="373" y="1257" type="curve" smooth="yes"/>
      <point x="161" y="55" type="line" smooth="yes"/>
      <point x="153" y="9"/>
      <point x="168" y="-10"/>
      <point x="224" y="-10" type="curve" smooth="yes"/>
      <point x="226" y="-10" type="line" smooth="yes"/>
      <point x="279" y="-10"/>
      <point x="303" y="9"/>
      <point x="311" y="55" type="curve" smooth="yes"/>
      <point x="363" y="352" type="line" smooth="yes"/>
      <point x="401" y="568"/>
      <point x="605" y="738"/>
      <point x="761" y="738" type="curve" smooth="yes"/>
      <point x="862" y="738"/>
      <point x="904" y="684"/>
      <point x="904" y="600" type="curve" smooth="yes"/>
      <point x="904" y="581"/>
      <point x="902" y="562"/>
      <point x="899" y="545" type="curve" smooth="yes"/>
      <point x="813" y="55" type="line" smooth="yes"/>
      <point x="805" y="9"/>
      <point x="820" y="-10"/>
      <point x="876" y="-10" type="curve" smooth="yes"/>
      <point x="878" y="-10" type="line" smooth="yes"/>
      <point x="931" y="-10"/>
      <point x="955" y="9"/>
      <point x="963" y="55" type="curve" smooth="yes"/>
      <point x="1050" y="549" type="line" smooth="yes"/>
      <point x="1055" y="577"/>
      <point x="1057" y="603"/>
      <point x="1057" y="627" type="curve" smooth="yes"/>
      <point x="1057" y="784"/>
      <point x="963" y="886"/>
      <point x="792" y="886" type="curve" smooth="yes"/>
      <point x="650" y="886"/>
      <point x="491" y="787"/>
      <point x="377" y="639" type="curve"/>
      <point x="409" y="613" type="line"/>
      <point x="523" y="1257" type="line" smooth="yes"/>
      <point x="531" y="1303"/>
      <point x="516" y="1322"/>
      <point x="460" y="1322" type="curve" smooth="yes"/>
    </contour>
    <contour>
      <point x="215" y="1150" type="line" smooth="yes"/>
      <point x="170" y="1150"/>
      <point x="148" y="1130"/>
      <point x="139" y="1078" type="curve" smooth="yes"/>
      <point x="130" y="1026"/>
      <point x="144" y="1006"/>
      <point x="189" y="1006" type="curve" smooth="yes"/>
      <point x="731" y="1006" type="line" smooth="yes"/>
      <point x="776" y="1006"/>
      <point x="798" y="1026"/>
      <point x="807" y="1078" type="curve" smooth="yes"/>
      <point x="816" y="1130"/>
      <point x="802" y="1150"/>
      <point x="757" y="1150" type="curve" smooth="yes"/>
    </contour>
  </outline>
</glyph>
<glyph name="Lslash" format="1">
  <advance width="1228"/>
  <unicode hex="0141"/>
  <outline>
    <contour>
      <point x="519" y="1197" type="line" smooth="yes"/>
      <point x="466" y="1197"/>
      <point x="442" y="1178"/>
      <point x="434" y="1132" type="curve" smooth="yes"/>
      <point x="246" y="68" type="line" smooth="yes"/>
      <point x="237" y="18"/>
      <point x="255" y="0"/>
      <point x="300" y="0" type="curve" smooth="yes"/>
      <point x="907" y="0" type="line" smooth="yes"/>
      <point x="952" y="0"/>
      <point x="973" y="20"/>
      <point x="982" y="72" type="curve" smooth="yes"/>
      <point x="991" y="124"/>
      <point x="977" y="144"/>
      <point x="932" y="144" type="curve" smooth="yes"/>
      <point x="410" y="144" type="line"/>
      <point x="584" y="1132" type="line" smooth="yes"/>
      <point x="592" y="1178"/>
      <point x="577" y="1197"/>
      <point x="521" y="1197" type="curve" smooth="yes"/>
    </contour>
    <contour>
      <point x="110" y="468" type="line" smooth="yes"/>
      <point x="73" y="443"/>
      <point x="68" y="418"/>
      <point x="96" y="377" type="curve" smooth="yes"/>
      <point x="124" y="335"/>
      <point x="150" y="331"/>
      <point x="187" y="356" type="curve" smooth="yes"/>
      <point x="756" y="743" type="line" smooth="yes"/>
      <point x="793" y="768"/>
      <point x="798" y="793"/>
      <point x="770" y="834" type="curve" smooth="yes"/>
      <point x="742" y="876"/>
      <point x="716" y="880"/>
      <point x="679" y="855" type="curve" smooth="yes"/>
    </contour>
  </outline>
</glyph>
<glyph name="lslash" format="1">
  <advance width="1228"/>
  <unicode hex="0142"/>
  <outline>
    <contour>
      <point x="275" y="550" type="line" smooth="yes"/>
      <point x="238" y="525"/>
      <point x="233" y="500"/>
      <point x="261" y="459" type="curve" smooth="yes"/>
      <point x="289" y="417"/>
      <point x="315" y="413"/>
      <point x="352" y="438" type="curve" smooth="yes"/>
      <point x="921" y="825" type="line" smooth="yes"/>
      <point x="958" y="850"/>
      <point x="963" y="875"/>
      <point x="935" y="916" type="curve" smooth="yes"/>
      <point x="907" y="958"/>
      <point x="881" y="962"/>
      <point x="844" y="937" type="curve" smooth="yes"/>
    </contour>
    <component base="l"/>
  </outline>
</glyph>
<glyph name="Eng" format="1">
  <advance width="1228"/>
  <unicode hex="014A"/>
  <outline>
    <contour>
      <point x="1119" y="1197" type="line" smooth="yes"/>
      <point x="1068" y="1197"/>
      <point x="1044" y="1178"/>
      <point x="1036" y="1132" type="curve" smooth="yes"/>
      <point x="886" y="277" type="line"/>
      <point x="882" y="277" type="line"/>
      <point x="475" y="1169" type="line" smooth="yes"/>
      <point x="467" y="1187"/>
      <point x="447" y="1197"/>
      <point x="418" y="1197" type="curve" smooth="yes"/>
      <point x="391" y="1197" type="line" smooth="yes"/>
      <point x="335" y="1197"/>
      <point x="312" y="1178"/>
      <point x="304" y="1132" type="curve" smooth="yes"/>
      <point x="114" y="55" type="line" smooth="yes"/>
      <point x="106" y="9"/>
      <point x="121" y="-10"/>
      <point x="175" y="-10" type="curve" smooth="yes"/>
      <point x="177" y="-10" type="line" smooth="yes"/>
      <point x="228" y="-10"/>
      <point x="252" y="9"/>
      <point x="260" y="55" type="curve" smooth="yes"/>
      <point x="415" y="931" type="line"/>
      <point x="419" y="931" type="line"/>
      <point x="836" y="18" type="line"/>
      <point x="814" y="-107" type="line" smooth="yes"/>
      <point x="794" y="-220"/>
      <point x="740" y="-264"/>
      <point x="658" y="-264" type="curve" smooth="yes"/>
      <point x="598" y="-264"/>
      <point x="537" y="-246"/>
      <point x="488" y="-224" type="curve" smooth="yes"/>
      <point x="461" y="-212"/>
      <point x="427" y="-219"/>
      <point x="405" y="-266" type="curve" smooth="yes"/>
      <point x="381" y="-317"/>
      <point x="390" y="-343"/>
      <point x="425" y="-360" type="curve" smooth="yes"/>
      <point x="488" y="-390"/>
      <point x="567" y="-410"/>
      <point x="647" y="-410" type="curve" smooth="yes"/>
      <point x="823" y="-410"/>
      <point x="927" y="-314"/>
      <point x="959" y="-135" type="curve" smooth="yes"/>
      <point x="1182" y="1132" type="line" smooth="yes"/>
      <point x="1190" y="1178"/>
      <point x="1175" y="1197"/>
      <point x="1121" y="1197" type="curve" smooth="yes"/>
    </contour>
  </outline>
</glyph>
<glyph name="eng" format="1">
  <advance width="1228"/>
  <unicode hex="014B"/>
  <outline>
    <contour>
      <point x="667" y="946"/>
      <point x="507" y="850"/>
      <point x="398" y="716" type="curve"/>
      <point x="425" y="869" type="line" smooth="yes"/>
      <point x="433" y="915"/>
      <point x="418" y="934"/>
      <point x="365" y="934" type="curve" smooth="yes"/>
      <point x="363" y="934" type="line" smooth="yes"/>
      <point x="310" y="934"/>
      <point x="293" y="915"/>
      <point x="285" y="869" type="curve" smooth="yes"/>
      <point x="141" y="55" type="line" smooth="yes"/>
      <point x="133" y="9"/>
      <point x="148" y="-10"/>
      <point x="204" y="-10" type="curve" smooth="yes"/>
      <point x="206" y="-10" type="line" smooth="yes"/>
      <point x="259" y="-10"/>
      <point x="283" y="9"/>
      <point x="291" y="55" type="curve" smooth="yes"/>
      <point x="351" y="392" type="line" smooth="yes"/>
      <point x="391" y="620"/>
      <point x="611" y="798"/>
      <point x="782" y="798" type="curve" smooth="yes"/>
      <point x="887" y="798"/>
      <point x="935" y="744"/>
      <point x="935" y="659" type="curve" smooth="yes"/>
      <point x="935" y="642"/>
      <point x="933" y="624"/>
      <point x="930" y="605" type="curve" smooth="yes"/>
      <point x="804" y="-107" type="line" smooth="yes"/>
      <point x="784" y="-220"/>
      <point x="730" y="-264"/>
      <point x="648" y="-264" type="curve" smooth="yes"/>
      <point x="588" y="-264"/>
      <point x="527" y="-246"/>
      <point x="478" y="-224" type="curve" smooth="yes"/>
      <point x="451" y="-212"/>
      <point x="417" y="-219"/>
      <point x="395" y="-266" type="curve" smooth="yes"/>
      <point x="371" y="-317"/>
      <point x="380" y="-343"/>
      <point x="415" y="-360" type="curve" smooth="yes"/>
      <point x="478" y="-390"/>
      <point x="557" y="-410"/>
      <point x="637" y="-410" type="curve" smooth="yes"/>
      <point x="813" y="-410"/>
      <point x="917" y="-314"/>
      <point x="949" y="-135" type="curve" smooth="yes"/>
      <point x="1081" y="610" type="line" smooth="yes"/>
      <point x="1086" y="637"/>
      <point x="1088" y="662"/>
      <point x="1088" y="686" type="curve" smooth="yes"/>
      <point x="1088" y="844"/>
      <point x="985" y="946"/>
      <point x="813" y="946" type="curve" smooth="yes"/>
    </contour>
  </outline>
</glyph>
<glyph name="Tbar" format="1">
  <advance width="1228"/>
  <unicode hex="0166"/>
  <outline>
    <contour>
      <point x="369" y="590" type="line" smooth="yes"/>
      <point x="324" y="590"/>
      <point x="302" y="570"/>
      <point x="293" y="518" type="curve" smooth="yes"/>
      <point x="284" y="466"/>
      <point x="298" y="446"/>
      <point x="343" y="446" type="curve" smooth="yes"/>
      <point x="905" y="446" type="line" smooth="yes"/>
      <point x="950" y="446"/>
      <point x="972" y="466"/>
      <point x="981" y="518" type="curve" smooth="yes"/>
      <point x="990" y="570"/>
      <point x="976" y="590"/>
      <point x="931" y="590" type="curve" smooth="yes"/>
    </contour>
    <component base="T"/>
  </outline>
</glyph>
<glyph name="tbar" format="1">
  <advance width="1228"/>
  <unicode hex="0167"/>
  <outline>
    <contour>
      <point x="275" y="580" type="line" smooth="yes"/>
      <point x="230" y="580"/>
      <point x="208" y="560"/>
      <point x="199" y="508" type="curve" smooth="yes"/>
      <point x="190" y="456"/>
      <point x="204" y="436"/>
      <point x="249" y="436" type="curve" smooth="yes"/>
      <point x="811" y="436" type="line" smooth="yes"/>
      <point x="856" y="436"/>
      <point x="878" y="456"/>
      <point x="887" y="508" type="curve" smooth="yes"/>
      <point x="896" y="560"/>
      <point x="882" y="580"/>
      <point x="837" y="580" type="curve" smooth="yes"/>
    </contour>
    <component base="t"/>
  </outline>
</glyph>
<glyph name="uogonek" format="1">
  <advance width="1228"/>
  <unicode hex="0173"/>
  <outline>
    <contour>
      <point x="1044" y="934" type="line" smooth="yes"/>
      <point x="991" y="934"/>
      <point x="967" y="915"/>
      <point x="959" y="869" type="curve" smooth="yes"/>
      <point x="899" y="532" type="line" smooth="yes"/>
      <point x="859" y="304"/>
      <point x="639" y="126"/>
      <point x="468" y="126" type="curve" smooth="yes"/>
      <point x="363" y="126"/>
      <point x="315" y="180"/>
      <point x="315" y="265" type="curve" smooth="yes"/>
      <point x="315" y="282"/>
      <point x="317" y="300"/>
      <point x="320" y="319" type="curve" smooth="yes"/>
      <point x="417" y="869" type="line" smooth="yes"/>
      <point x="425" y="915"/>
      <point x="410" y="934"/>
      <point x="354" y="934" type="curve" smooth="yes"/>
      <point x="352" y="934" type="line" smooth="yes"/>
      <point x="299" y="934"/>
      <point x="275" y="915"/>
      <point x="267" y="869" type="curve" smooth="yes"/>
      <point x="169" y="314" type="line" smooth="yes"/>
      <point x="164" y="287"/>
      <point x="162" y="262"/>
      <point x="162" y="238" type="curve" smooth="yes"/>
      <point x="162" y="80"/>
      <point x="265" y="-22"/>
      <point x="437" y="-22" type="curve" smooth="yes"/>
      <point x="583" y="-22"/>
      <point x="743" y="74"/>
      <point x="852" y="208" type="curve"/>
      <point x="822" y="38" type="line"/>
      <point x="662" y="-75"/>
      <point x="568" y="-185"/>
      <point x="568" y="-310" type="curve" smooth="yes"/>
      <point x="568" y="-406"/>
      <point x="626" y="-472"/>
      <point x="733" y="-472" type="curve" smooth="yes"/>
      <point x="797" y="-472"/>
      <point x="862" y="-460"/>
      <point x="911" y="-443" type="curve" smooth="yes"/>
      <point x="942" y="-432"/>
      <point x="952" y="-411"/>
      <point x="947" y="-374" type="curve" smooth="yes"/>
      <point x="942" y="-337"/>
      <point x="927" y="-322"/>
      <point x="900" y="-326" type="curve" smooth="yes"/>
      <point x="864" y="-332"/>
      <point x="828" y="-336"/>
      <point x="789" y="-336" type="curve" smooth="yes"/>
      <point x="749" y="-336"/>
      <point x="724" y="-316"/>
      <point x="724" y="-277" type="curve" smooth="yes"/>
      <point x="724" y="-206"/>
      <point x="790" y="-117"/>
      <point x="937" y="1" type="curve"/>
      <point x="952" y="13"/>
      <point x="960" y="28"/>
      <point x="965" y="55" type="curve" smooth="yes"/>
      <point x="1109" y="869" type="line" smooth="yes"/>
      <point x="1117" y="915"/>
      <point x="1102" y="934"/>
      <point x="1046" y="934" type="curve" smooth="yes"/>
    </contour>
  </outline>
</glyph>
<glyph name="hungarumlaut" format="1">
  <advance width="1228"/>
  <unicode hex="02DD"/>
  <outline>
    <contour>
      <point x="766" y="1394"/>
      <point x="725" y="1390"/>
      <point x="696" y="1363" type="curve" smooth="yes"/>
      <point x="455" y="1130" type="line" smooth="yes"/>
      <point x="435" y="1111"/>
      <point x="436" y="1083"/>
      <point x="463" y="1066" type="curve" smooth="yes"/>
      <point x="492" y="1048"/>
      <point x="522" y="1050"/>
      <point x="545" y="1066" type="curve" smooth="yes"/>
      <point x="846" y="1276" type="line" smooth="yes"/>
      <point x="878" y="1298"/>
      <point x="868" y="1327"/>
      <point x="813" y="1363" type="curve" smooth="yes"/>
    </contour>
    <contour>
      <point x="1146" y="1394"/>
      <point x="1105" y="1390"/>
      <point x="1076" y="1363" type="curve" smooth="yes"/>
      <point x="835" y="1130" type="line" smooth="yes"/>
      <point x="815" y="1111"/>
      <point x="816" y="1083"/>
      <point x="843" y="1066" type="curve" smooth="yes"/>
      <point x="872" y="1048"/>
      <point x="902" y="1050"/>
      <point x="925" y="1066" type="curve" smooth="yes"/>
      <point x="1226" y="1276" type="line" smooth="yes"/>
      <point x="1258" y="1298"/>
      <point x="1248" y="1327"/>
      <point x="1193" y="1363" type="curve" smooth="yes"/>
    </contour>
  </outline>
</glyph>
<glyph name="Omega" format="1">
  <advance width="1228"/>
  <unicode hex="03A9"/>
  <outline>
    <contour>
      <point x="534" y="1209"/>
      <point x="375" y="1108"/>
      <point x="269" y="961" type="curve" smooth="yes"/>
      <point x="175" y="830"/>
      <point x="133" y="674"/>
      <point x="133" y="519" type="curve" smooth="yes"/>
      <point x="133" y="361"/>
      <point x="202" y="234"/>
      <point x="300" y="144" type="curve"/>
      <point x="103" y="144" type="line" smooth="yes"/>
      <point x="58" y="144"/>
      <point x="37" y="124"/>
      <point x="28" y="72" type="curve" smooth="yes"/>
      <point x="19" y="20"/>
      <point x="33" y="0"/>
      <point x="78" y="0" type="curve" smooth="yes"/>
      <point x="401" y="0" type="line" smooth="yes"/>
      <point x="446" y="0"/>
      <point x="468" y="21"/>
      <point x="478" y="78" type="curve" smooth="yes"/>
      <point x="483" y="109"/>
      <point x="483" y="134"/>
      <point x="472" y="143" type="curve" smooth="yes"/>
      <point x="355" y="235"/>
      <point x="283" y="354"/>
      <point x="283" y="514" type="curve" smooth="yes"/>
      <point x="283" y="639"/>
      <point x="320" y="773"/>
      <point x="395" y="878" type="curve" smooth="yes"/>
      <point x="472" y="986"/>
      <point x="586" y="1061"/>
      <point x="731" y="1061" type="curve" smooth="yes"/>
      <point x="918" y="1061"/>
      <point x="1030" y="933"/>
      <point x="1030" y="722" type="curve" smooth="yes"/>
      <point x="1030" y="522"/>
      <point x="938" y="302"/>
      <point x="652" y="142" type="curve" smooth="yes"/>
      <point x="637" y="133"/>
      <point x="629" y="109"/>
      <point x="624" y="78" type="curve" smooth="yes"/>
      <point x="614" y="21"/>
      <point x="635" y="0"/>
      <point x="673" y="0" type="curve" smooth="yes"/>
      <point x="1018" y="0" type="line" smooth="yes"/>
      <point x="1063" y="0"/>
      <point x="1084" y="20"/>
      <point x="1093" y="72" type="curve" smooth="yes"/>
      <point x="1102" y="124"/>
      <point x="1088" y="144"/>
      <point x="1043" y="144" type="curve" smooth="yes"/>
      <point x="855" y="144" type="line"/>
      <point x="1084" y="294"/>
      <point x="1183" y="519"/>
      <point x="1183" y="728" type="curve" smooth="yes"/>
      <point x="1183" y="1018"/>
      <point x="1014" y="1209"/>
      <point x="742" y="1209" type="curve" smooth="yes"/>
    </contour>
  </outline>
</glyph>
<glyph name="mu" format="1">
  <advance width="1228"/>
  <unicode hex="03BC"/>
  <outline>
    <contour>
      <point x="1038" y="934" type="line" smooth="yes"/>
      <point x="985" y="934"/>
      <point x="961" y="915"/>
      <point x="953" y="869" type="curve" smooth="yes"/>
      <point x="889" y="502" type="line" smooth="yes"/>
      <point x="852" y="292"/>
      <point x="653" y="126"/>
      <point x="502" y="126" type="curve" smooth="yes"/>
      <point x="394" y="126"/>
      <point x="349" y="181"/>
      <point x="349" y="266" type="curve" smooth="yes"/>
      <point x="349" y="283"/>
      <point x="351" y="301"/>
      <point x="354" y="319" type="curve" smooth="yes"/>
      <point x="451" y="869" type="line" smooth="yes"/>
      <point x="459" y="915"/>
      <point x="444" y="934"/>
      <point x="388" y="934" type="curve" smooth="yes"/>
      <point x="386" y="934" type="line" smooth="yes"/>
      <point x="333" y="934"/>
      <point x="309" y="915"/>
      <point x="301" y="869" type="curve" smooth="yes"/>
      <point x="89" y="-333" type="line" smooth="yes"/>
      <point x="81" y="-379"/>
      <point x="96" y="-398"/>
      <point x="152" y="-398" type="curve" smooth="yes"/>
      <point x="154" y="-398" type="line" smooth="yes"/>
      <point x="207" y="-398"/>
      <point x="231" y="-379"/>
      <point x="239" y="-333" type="curve" smooth="yes"/>
      <point x="304" y="36" type="line"/>
      <point x="345" y="-2"/>
      <point x="405" y="-22"/>
      <point x="475" y="-22" type="curve" smooth="yes"/>
      <point x="610" y="-22"/>
      <point x="747" y="74"/>
      <point x="845" y="198" type="curve"/>
      <point x="820" y="55" type="line" smooth="yes"/>
      <point x="812" y="9"/>
      <point x="827" y="-10"/>
      <point x="880" y="-10" type="curve" smooth="yes"/>
      <point x="882" y="-10" type="line" smooth="yes"/>
      <point x="935" y="-10"/>
      <point x="952" y="9"/>
      <point x="960" y="55" type="curve" smooth="yes"/>
      <point x="1103" y="869" type="line" smooth="yes"/>
      <point x="1111" y="915"/>
      <point x="1096" y="934"/>
      <point x="1040" y="934" type="curve" smooth="yes"/>
    </contour>
  </outline>
</glyph>
<glyph name="dagger" format="1">
  <advance width="1228"/>
  <unicode hex="2020"/>
  <outline>
    <contour>
      <point x="703" y="1209"/>
      <point x="682" y="1191"/>
      <point x="674" y="1146" type="curve" smooth="yes"/>
      <point x="634" y="924" type="line"/>
      <point x="445" y="924" type="line" smooth="yes"/>
      <point x="400" y="924"/>
      <point x="379" y="904"/>
      <point x="370" y="852" type="curve" smooth="yes"/>
      <point x="361" y="800"/>
      <point x="375" y="780"/>
      <point x="420" y="780" type="curve" smooth="yes"/>
      <point x="609" y="780" type="line"/>
      <point x="532" y="344" type="line" smooth="yes"/>
      <point x="524" y="299"/>
      <point x="543" y="281"/>
      <point x="595" y="281" type="curve" smooth="yes"/>
      <point x="647" y="281"/>
      <point x="668" y="299"/>
      <point x="676" y="344" type="curve" smooth="yes"/>
      <point x="753" y="780" type="line"/>
      <point x="942" y="780" type="line" smooth="yes"/>
      <point x="987" y="780"/>
      <point x="1009" y="800"/>
      <point x="1018" y="852" type="curve" smooth="yes"/>
      <point x="1027" y="904"/>
      <point x="1012" y="924"/>
      <point x="967" y="924" type="curve" smooth="yes"/>
      <point x="778" y="924" type="line"/>
      <point x="818" y="1146" type="line" smooth="yes"/>
      <point x="826" y="1191"/>
      <point x="807" y="1209"/>
      <point x="755" y="1209" type="curve" smooth="yes"/>
    </contour>
  </outline>
</glyph>
<glyph name="perthousand" format="1">
  <advance width="1228"/>
  <unicode hex="2030"/>
  <outline>
    <contour>
      <point x="99" y="229" type="line" smooth="yes"/>
      <point x="60" y="198"/>
      <point x="57" y="167"/>
      <point x="83" y="134" type="curve" smooth="yes"/>
      <point x="108" y="101"/>
      <point x="139" y="98"/>
      <point x="177" y="129" type="curve" smooth="yes"/>
      <point x="1198" y="959" type="line" smooth="yes"/>
      <point x="1236" y="990"/>
      <point x="1239" y="1021"/>
      <point x="1213" y="1054" type="curve" smooth="yes"/>
      <point x="1187" y="1087"/>
      <point x="1158" y="1090"/>
      <point x="1119" y="1059" type="curve" smooth="yes"/>
    </contour>
    <contour>
      <point x="973" y="396"/>
      <point x="1024" y="344"/>
      <point x="1024" y="277" type="curve" smooth="yes"/>
      <point x="1024" y="187"/>
      <point x="940" y="108"/>
      <point x="853" y="108" type="curve" smooth="yes"/>
      <point x="782" y="108"/>
      <point x="732" y="160"/>
      <point x="732" y="227" type="curve" smooth="yes"/>
      <point x="732" y="317"/>
      <point x="816" y="396"/>
      <point x="903" y="396" type="curve" smooth="yes"/>
    </contour>
    <contour>
      <point x="1250" y="526"/>
      <point x="1167" y="485"/>
      <point x="1110" y="420" type="curve"/>
      <point x="1072" y="484"/>
      <point x="1005" y="526"/>
      <point x="920" y="526" type="curve" smooth="yes"/>
      <point x="756" y="526"/>
      <point x="602" y="389"/>
      <point x="602" y="215" type="curve" smooth="yes"/>
      <point x="602" y="84"/>
      <point x="701" y="-22"/>
      <point x="836" y="-22" type="curve" smooth="yes"/>
      <point x="925" y="-22"/>
      <point x="1009" y="19"/>
      <point x="1066" y="84" type="curve"/>
      <point x="1104" y="20"/>
      <point x="1171" y="-22"/>
      <point x="1256" y="-22" type="curve" smooth="yes"/>
      <point x="1419" y="-22"/>
      <point x="1574" y="115"/>
      <point x="1574" y="289" type="curve" smooth="yes"/>
      <point x="1574" y="419"/>
      <point x="1475" y="526"/>
      <point x="1340" y="526" type="curve" smooth="yes"/>
    </contour>
    <contour>
      <point x="513" y="1079"/>
      <point x="564" y="1027"/>
      <point x="564" y="960" type="curve" smooth="yes"/>
      <point x="564" y="870"/>
      <point x="480" y="791"/>
      <point x="393" y="791" type="curve" smooth="yes"/>
      <point x="322" y="791"/>
      <point x="272" y="843"/>
      <point x="272" y="910" type="curve" smooth="yes"/>
      <point x="272" y="1000"/>
      <point x="356" y="1079"/>
      <point x="443" y="1079" type="curve" smooth="yes"/>
    </contour>
    <contour>
      <point x="296" y="1209"/>
      <point x="142" y="1072"/>
      <point x="142" y="898" type="curve" smooth="yes"/>
      <point x="142" y="767"/>
      <point x="241" y="661"/>
      <point x="376" y="661" type="curve" smooth="yes"/>
      <point x="539" y="661"/>
      <point x="694" y="798"/>
      <point x="694" y="972" type="curve" smooth="yes"/>
      <point x="694" y="1102"/>
      <point x="595" y="1209"/>
      <point x="460" y="1209" type="curve" smooth="yes"/>
    </contour>
    <contour>
      <point x="1393" y="396"/>
      <point x="1444" y="344"/>
      <point x="1444" y="277" type="curve" smooth="yes"/>
      <point x="1444" y="187"/>
      <point x="1360" y="108"/>
      <point x="1273" y="108" type="curve" smooth="yes"/>
      <point x="1202" y="108"/>
      <point x="1152" y="160"/>
      <point x="1152" y="227" type="curve" smooth="yes"/>
      <point x="1152" y="317"/>
      <point x="1236" y="396"/>
      <point x="1323" y="396" type="curve" smooth="yes"/>
    </contour>
  </outline>
</glyph>
<glyph name="guilsinglleft" format="1">
  <advance width="1228"/>
  <unicode hex="2039"/>
  <outline>
    <contour>
      <point x="843" y="950"/>
      <point x="811" y="954"/>
      <point x="790" y="934" type="curve" smooth="yes"/>
      <point x="434" y="610" type="line" smooth="yes"/>
      <point x="420" y="598"/>
      <point x="419" y="576"/>
      <point x="429" y="562" type="curve" smooth="yes"/>
      <point x="688" y="201" type="line" smooth="yes"/>
      <point x="705" y="177"/>
      <point x="737" y="174"/>
      <point x="781" y="204" type="curve" smooth="yes"/>
      <point x="822" y="233"/>
      <point x="826" y="260"/>
      <point x="807" y="285" type="curve" smooth="yes"/>
      <point x="599" y="568" type="line"/>
      <point x="888" y="827" type="line" smooth="yes"/>
      <point x="912" y="849"/>
      <point x="914" y="875"/>
      <point x="880" y="911" type="curve" smooth="yes"/>
    </contour>
  </outline>
</glyph>
<glyph name="guilsinglright" format="1">
  <advance width="1228"/>
  <unicode hex="203A"/>
  <outline>
    <contour>
      <point x="464" y="895"/>
      <point x="460" y="868"/>
      <point x="479" y="843" type="curve" smooth="yes"/>
      <point x="687" y="560" type="line"/>
      <point x="398" y="301" type="line" smooth="yes"/>
      <point x="374" y="279"/>
      <point x="372" y="253"/>
      <point x="406" y="217" type="curve" smooth="yes"/>
      <point x="443" y="178"/>
      <point x="475" y="174"/>
      <point x="496" y="194" type="curve" smooth="yes"/>
      <point x="852" y="518" type="line" smooth="yes"/>
      <point x="866" y="530"/>
      <point x="867" y="552"/>
      <point x="857" y="566" type="curve" smooth="yes"/>
      <point x="598" y="927" type="line" smooth="yes"/>
      <point x="581" y="951"/>
      <point x="549" y="954"/>
      <point x="505" y="924" type="curve" smooth="yes"/>
    </contour>
  </outline>
</glyph>
<glyph name="won" format="1">
  <advance width="1228"/>
  <unicode hex="20A9"/>
  <outline>
    <contour>
      <point x="98" y="754" type="line" smooth="yes"/>
      <point x="53" y="754"/>
      <point x="31" y="734"/>
      <point x="22" y="682" type="curve" smooth="yes"/>
      <point x="13" y="630"/>
      <point x="27" y="610"/>
      <point x="72" y="610" type="curve" smooth="yes"/>
      <point x="581" y="610" type="line"/>
      <point x="653" y="680" type="line"/>
      <point x="705" y="610" type="line"/>
      <point x="1234" y="610" type="line" smooth="yes"/>
      <point x="1279" y="610"/>
      <point x="1301" y="630"/>
      <point x="1310" y="682" type="curve" smooth="yes"/>
      <point x="1319" y="734"/>
      <point x="1305" y="754"/>
      <point x="1260" y="754" type="curve" smooth="yes"/>
    </contour>
    <component base="W"/>
  </outline>
</glyph>
<glyph name="partialdiff" format="1">
  <advance width="1228"/>
  <unicode hex="2202"/>
  <outline>
    <contour>
      <point x="803" y="242"/>
      <point x="686" y="126"/>
      <point x="503" y="126" type="curve" smooth="yes"/>
      <point x="378" y="126"/>
      <point x="307" y="204"/>
      <point x="321" y="333" type="curve" smooth="yes"/>
      <point x="337" y="484"/>
      <point x="444" y="582"/>
      <point x="601" y="583" type="curve" smooth="yes"/>
      <point x="749" y="584"/>
      <point x="831" y="472"/>
      <point x="837" y="335" type="curve"/>
      <point x="912" y="504" type="line"/>
      <point x="872" y="646"/>
      <point x="757" y="731"/>
      <point x="599" y="731" type="curve" smooth="yes"/>
      <point x="374" y="731"/>
      <point x="190" y="573"/>
      <point x="169" y="334" type="curve" smooth="yes"/>
      <point x="150" y="122"/>
      <point x="275" y="-23"/>
      <point x="493" y="-23" type="curve" smooth="yes"/>
      <point x="738" y="-23"/>
      <point x="907" y="132"/>
      <point x="1025" y="458" type="curve" smooth="yes"/>
      <point x="1259" y="1103"/>
      <point x="887" y="1290"/>
      <point x="542" y="1178" type="curve" smooth="yes"/>
      <point x="514" y="1168"/>
      <point x="495" y="1144"/>
      <point x="507" y="1094" type="curve" smooth="yes"/>
      <point x="520" y="1038"/>
      <point x="543" y="1033"/>
      <point x="567" y="1038" type="curve" smooth="yes"/>
      <point x="931" y="1120"/>
      <point x="1029" y="894"/>
      <point x="889" y="490" type="curve" smooth="yes"/>
    </contour>
  </outline>
</glyph>
<glyph name="summation" format="1">
  <advance width="1228"/>
  <unicode hex="2211"/>
  <outline>
    <contour>
      <point x="389" y="1187" type="line" smooth="yes"/>
      <point x="344" y="1187"/>
      <point x="321" y="1169"/>
      <point x="312" y="1119" type="curve" smooth="yes"/>
      <point x="309" y="1099"/>
      <point x="308" y="1082"/>
      <point x="316" y="1070" type="curve" smooth="yes"/>
      <point x="607" y="607" type="line"/>
      <point x="132" y="121" type="line" smooth="yes"/>
      <point x="120" y="108"/>
      <point x="111" y="90"/>
      <point x="107" y="68" type="curve" smooth="yes"/>
      <point x="98" y="18"/>
      <point x="115" y="0"/>
      <point x="160" y="0" type="curve" smooth="yes"/>
      <point x="907" y="0" type="line" smooth="yes"/>
      <point x="952" y="0"/>
      <point x="974" y="20"/>
      <point x="983" y="72" type="curve" smooth="yes"/>
      <point x="992" y="124"/>
      <point x="977" y="144"/>
      <point x="932" y="144" type="curve" smooth="yes"/>
      <point x="349" y="144" type="line"/>
      <point x="763" y="565" type="line" smooth="yes"/>
      <point x="780" y="583"/>
      <point x="780" y="607"/>
      <point x="768" y="626" type="curve" smooth="yes"/>
      <point x="504" y="1043" type="line"/>
      <point x="1071" y="1043" type="line" smooth="yes"/>
      <point x="1116" y="1043"/>
      <point x="1137" y="1063"/>
      <point x="1147" y="1115" type="curve" smooth="yes"/>
      <point x="1156" y="1167"/>
      <point x="1141" y="1187"/>
      <point x="1096" y="1187" type="curve" smooth="yes"/>
    </contour>
    <contour>
      <point x="395" y="-837" type="line"/>
      <point x="395" y="-838" type="line"/>
      <point x="396" y="-838" type="line"/>
      <point x="396" y="-837" type="line"/>
    </contour>
    <contour>
      <point x="860" y="1797" type="line"/>
      <point x="860" y="1796" type="line"/>
      <point x="861" y="1796" type="line"/>
      <point x="861" y="1797" type="line"/>
    </contour>
  </outline>
</glyph>
<glyph name="infinity" format="1">
  <advance width="1228"/>
  <unicode hex="221E"/>
  <outline>
    <contour>
      <point x="1093" y="293"/>
      <point x="1217" y="412"/>
      <point x="1232" y="582" type="curve" smooth="yes"/>
      <point x="1246" y="746"/>
      <point x="1140" y="871"/>
      <point x="979" y="871" type="curve" smooth="yes"/>
      <point x="643" y="871"/>
      <point x="596" y="427"/>
      <point x="327" y="427" type="curve" smooth="yes"/>
      <point x="237" y="427"/>
      <point x="189" y="495"/>
      <point x="198" y="582" type="curve" smooth="yes"/>
      <point x="207" y="673"/>
      <point x="269" y="737"/>
      <point x="359" y="737" type="curve" smooth="yes"/>
      <point x="628" y="737"/>
      <point x="600" y="293"/>
      <point x="932" y="293" type="curve" smooth="yes"/>
    </contour>
    <contour>
      <point x="200" y="871"/>
      <point x="75" y="752"/>
      <point x="60" y="582" type="curve" smooth="yes"/>
      <point x="46" y="418"/>
      <point x="153" y="293"/>
      <point x="314" y="293" type="curve" smooth="yes"/>
      <point x="650" y="293"/>
      <point x="696" y="737"/>
      <point x="965" y="737" type="curve" smooth="yes"/>
      <point x="1055" y="737"/>
      <point x="1103" y="669"/>
      <point x="1094" y="582" type="curve" smooth="yes"/>
      <point x="1085" y="491"/>
      <point x="1023" y="427"/>
      <point x="933" y="427" type="curve" smooth="yes"/>
      <point x="664" y="427"/>
      <point x="693" y="871"/>
      <point x="361" y="871" type="curve" smooth="yes"/>
    </contour>
  </outline>
</glyph>
<glyph name="lessequal" format="1">
  <advance width="1228"/>
  <unicode hex="2264"/>
  <outline>
    <contour>
      <point x="299" y="830" type="line" smooth="yes"/>
      <point x="263" y="817"/>
      <point x="240" y="795"/>
      <point x="233" y="755" type="curve" smooth="yes"/>
      <point x="226" y="715"/>
      <point x="241" y="693"/>
      <point x="272" y="680" type="curve" smooth="yes"/>
      <point x="969" y="386" type="line" smooth="yes"/>
      <point x="1008" y="370"/>
      <point x="1028" y="382"/>
      <point x="1049" y="431" type="curve" smooth="yes"/>
      <point x="1071" y="482"/>
      <point x="1066" y="507"/>
      <point x="1025" y="524" type="curve" smooth="yes"/>
      <point x="475" y="747" type="line"/>
      <point x="1121" y="975" type="line" smooth="yes"/>
      <point x="1167" y="991"/>
      <point x="1185" y="1025"/>
      <point x="1167" y="1076" type="curve" smooth="yes"/>
      <point x="1150" y="1125"/>
      <point x="1127" y="1134"/>
      <point x="1082" y="1118" type="curve" smooth="yes"/>
    </contour>
    <contour>
      <point x="208" y="254" type="line" smooth="yes"/>
      <point x="163" y="254"/>
      <point x="141" y="234"/>
      <point x="132" y="182" type="curve" smooth="yes"/>
      <point x="123" y="130"/>
      <point x="137" y="110"/>
      <point x="182" y="110" type="curve" smooth="yes"/>
      <point x="944" y="110" type="line" smooth="yes"/>
      <point x="989" y="110"/>
      <point x="1011" y="130"/>
      <point x="1020" y="182" type="curve" smooth="yes"/>
      <point x="1029" y="234"/>
      <point x="1015" y="254"/>
      <point x="970" y="254" type="curve" smooth="yes"/>
    </contour>
  </outline>
</glyph>
<glyph name="lozenge" format="1">
  <advance width="1228"/>
  <unicode hex="25CA"/>
  <outline>
    <contour>
      <point x="692" y="1209"/>
      <point x="664" y="1188"/>
      <point x="632" y="1144" type="curve" smooth="yes"/>
      <point x="255" y="637" type="line" smooth="yes"/>
      <point x="240" y="617"/>
      <point x="237" y="597"/>
      <point x="244" y="577" type="curve" smooth="yes"/>
      <point x="454" y="43" type="line" smooth="yes"/>
      <point x="471" y="-1"/>
      <point x="491" y="-22"/>
      <point x="548" y="-22" type="curve" smooth="yes"/>
      <point x="605" y="-22"/>
      <point x="633" y="-1"/>
      <point x="666" y="43" type="curve" smooth="yes"/>
      <point x="1041" y="549" type="line" smooth="yes"/>
      <point x="1056" y="569"/>
      <point x="1059" y="589"/>
      <point x="1052" y="609" type="curve" smooth="yes"/>
      <point x="844" y="1144" type="line" smooth="yes"/>
      <point x="827" y="1188"/>
      <point x="806" y="1209"/>
      <point x="749" y="1209" type="curve" smooth="yes"/>
    </contour>
    <contour>
      <point x="895" y="593" type="line"/>
      <point x="572" y="158" type="line"/>
      <point x="403" y="593" type="line"/>
      <point x="725" y="1029" type="line"/>
    </contour>
  </outline>
</glyph>
<glyph name="emdash.alt3" format="1">
  <advance width="2456"/>
  <outline>
    <contour>
      <point x="392" y="654" type="line" smooth="yes"/>
      <point x="347" y="654"/>
      <point x="325" y="634"/>
      <point x="316" y="582" type="curve" smooth="yes"/>
      <point x="307" y="530"/>
      <point x="321" y="510"/>
      <point x="366" y="510" type="curve" smooth="yes"/>
      <point x="2128" y="510" type="line" smooth="yes"/>
      <point x="2173" y="510"/>
      <point x="2195" y="530"/>
      <point x="2204" y="582" type="curve" smooth="yes"/>
      <point x="2213" y="634"/>
      <point x="2199" y="654"/>
      <point x="2154" y="654" type="curve" smooth="yes"/>
    </contour>
  </outline>
</glyph>
<glyph name="macron.case" format="1">
  <advance width="1228"/>
  <outline>
    <component base="macron" xOffset="40" yOffset="270"/>
    <contour>
      <point x="741" y="1187" type="move" name="_top"/>
    </contour>
  </outline>
</glyph>
<glyph name="tilde.case" format="1">
  <advance width="1228"/>
  <outline>
    <component base="tilde" xOffset="40" yOffset="270"/>
    <contour>
      <point x="741" y="1187" type="move" name="_top"/>
    </contour>
  </outline>
</glyph>
